<svg width="1181" height="80" viewBox="0 0 1181 80" fill="none" xmlns="http://www.w3.org/2000/svg">
<path d="M10.0716 2.2V12H8.25161V7.8H3.18361V12H1.36361V2.2H3.18361V6.246H8.25161V2.2H10.0716ZM15.8896 12.098C15.1336 12.098 14.4523 11.9347 13.8456 11.608C13.2389 11.2813 12.7629 10.8287 12.4176 10.25C12.0816 9.662 11.9136 8.99933 11.9136 8.262C11.9136 7.52467 12.0816 6.86667 12.4176 6.288C12.7629 5.70933 13.2389 5.25667 13.8456 4.93C14.4523 4.60333 15.1336 4.44 15.8896 4.44C16.6549 4.44 17.3409 4.60333 17.9476 4.93C18.5543 5.25667 19.0256 5.70933 19.3616 6.288C19.7069 6.86667 19.8796 7.52467 19.8796 8.262C19.8796 8.99933 19.7069 9.662 19.3616 10.25C19.0256 10.8287 18.5543 11.2813 17.9476 11.608C17.3409 11.9347 16.6549 12.098 15.8896 12.098ZM15.8896 10.6C16.5336 10.6 17.0656 10.3853 17.4856 9.956C17.9056 9.52667 18.1156 8.962 18.1156 8.262C18.1156 7.562 17.9056 6.99733 17.4856 6.568C17.0656 6.13867 16.5336 5.924 15.8896 5.924C15.2456 5.924 14.7136 6.13867 14.2936 6.568C13.8829 6.99733 13.6776 7.562 13.6776 8.262C13.6776 8.962 13.8829 9.52667 14.2936 9.956C14.7136 10.3853 15.2456 10.6 15.8896 10.6ZM30.989 4.44C31.9317 4.44 32.6784 4.71533 33.229 5.266C33.7797 5.80733 34.055 6.624 34.055 7.716V12H32.305V7.94C32.305 7.28667 32.1604 6.79667 31.871 6.47C31.5817 6.134 31.1664 5.966 30.625 5.966C30.037 5.966 29.5657 6.162 29.211 6.554C28.8564 6.93667 28.679 7.48733 28.679 8.206V12H26.929V7.94C26.929 7.28667 26.7844 6.79667 26.495 6.47C26.2057 6.134 25.7904 5.966 25.249 5.966C24.6517 5.966 24.1757 6.15733 23.821 6.54C23.4757 6.92267 23.303 7.478 23.303 8.206V12H21.553V4.524H23.219V5.476C23.499 5.14 23.849 4.88333 24.269 4.706C24.689 4.52867 25.1557 4.44 25.669 4.44C26.229 4.44 26.7237 4.54733 27.153 4.762C27.5917 4.96733 27.937 5.27533 28.189 5.686C28.497 5.294 28.8937 4.99067 29.379 4.776C29.8644 4.552 30.401 4.44 30.989 4.44ZM43.3877 8.304C43.3877 8.42533 43.3783 8.598 43.3597 8.822H37.4937C37.5963 9.37267 37.8623 9.81133 38.2917 10.138C38.7303 10.4553 39.2717 10.614 39.9157 10.614C40.737 10.614 41.4137 10.3433 41.9457 9.802L42.8837 10.88C42.5477 11.2813 42.123 11.5847 41.6097 11.79C41.0963 11.9953 40.5177 12.098 39.8737 12.098C39.0523 12.098 38.329 11.9347 37.7037 11.608C37.0783 11.2813 36.593 10.8287 36.2477 10.25C35.9117 9.662 35.7437 8.99933 35.7437 8.262C35.7437 7.534 35.907 6.88067 36.2337 6.302C36.5697 5.714 37.0317 5.25667 37.6197 4.93C38.2077 4.60333 38.8703 4.44 39.6077 4.44C40.3357 4.44 40.9843 4.60333 41.5537 4.93C42.1323 5.24733 42.5803 5.7 42.8977 6.288C43.2243 6.86667 43.3877 7.53867 43.3877 8.304ZM39.6077 5.84C39.0477 5.84 38.5717 6.008 38.1797 6.344C37.797 6.67067 37.5637 7.10933 37.4797 7.66H41.7217C41.647 7.11867 41.4183 6.68 41.0357 6.344C40.653 6.008 40.177 5.84 39.6077 5.84Z" fill="#757575"/>
<path d="M77.3516 3.74H74.1036V2.2H82.4196V3.74H79.1716V12H77.3516V3.74ZM89.8799 8.304C89.8799 8.42533 89.8705 8.598 89.8519 8.822H83.9859C84.0885 9.37267 84.3545 9.81133 84.7839 10.138C85.2225 10.4553 85.7639 10.614 86.4079 10.614C87.2292 10.614 87.9059 10.3433 88.4379 9.802L89.3759 10.88C89.0399 11.2813 88.6152 11.5847 88.1019 11.79C87.5885 11.9953 87.0099 12.098 86.3659 12.098C85.5445 12.098 84.8212 11.9347 84.1959 11.608C83.5705 11.2813 83.0852 10.8287 82.7399 10.25C82.4039 9.662 82.2359 8.99933 82.2359 8.262C82.2359 7.534 82.3992 6.88067 82.7259 6.302C83.0619 5.714 83.5239 5.25667 84.1119 4.93C84.6999 4.60333 85.3625 4.44 86.0999 4.44C86.8279 4.44 87.4765 4.60333 88.0459 4.93C88.6245 5.24733 89.0725 5.7 89.3899 6.288C89.7165 6.86667 89.8799 7.53867 89.8799 8.304ZM86.0999 5.84C85.5399 5.84 85.0639 6.008 84.6719 6.344C84.2892 6.67067 84.0559 7.10933 83.9719 7.66H88.2139C88.1392 7.11867 87.9105 6.68 87.5279 6.344C87.1452 6.008 86.6692 5.84 86.0999 5.84ZM96.1158 12L94.1978 9.41L92.2658 12H90.3338L93.2458 8.206L90.4598 4.524H92.4058L94.2398 6.974L96.0738 4.524H97.9638L95.1638 8.178L98.0898 12H96.1158ZM103.875 11.594C103.67 11.762 103.418 11.888 103.119 11.972C102.83 12.056 102.522 12.098 102.195 12.098C101.374 12.098 100.739 11.8833 100.291 11.454C99.8432 11.0247 99.6192 10.3993 99.6192 9.578V5.98H98.3872V4.58H99.6192V2.872H101.369V4.58H103.371V5.98H101.369V9.536C101.369 9.9 101.458 10.18 101.635 10.376C101.812 10.5627 102.069 10.656 102.405 10.656C102.797 10.656 103.124 10.5533 103.385 10.348L103.875 11.594ZM109.459 4.44C110.187 4.44 110.835 4.59867 111.405 4.916C111.983 5.23333 112.436 5.68133 112.763 6.26C113.089 6.83867 113.253 7.506 113.253 8.262C113.253 9.018 113.089 9.69 112.763 10.278C112.436 10.8567 111.983 11.3047 111.405 11.622C110.835 11.9393 110.187 12.098 109.459 12.098C108.945 12.098 108.474 12.0093 108.045 11.832C107.625 11.6547 107.27 11.3887 106.981 11.034V12H105.315V1.612H107.065V5.434C107.363 5.10733 107.713 4.86 108.115 4.692C108.525 4.524 108.973 4.44 109.459 4.44ZM109.263 10.6C109.907 10.6 110.434 10.3853 110.845 9.956C111.265 9.52667 111.475 8.962 111.475 8.262C111.475 7.562 111.265 6.99733 110.845 6.568C110.434 6.13867 109.907 5.924 109.263 5.924C108.843 5.924 108.465 6.022 108.129 6.218C107.793 6.40467 107.527 6.67533 107.331 7.03C107.135 7.38467 107.037 7.79533 107.037 8.262C107.037 8.72867 107.135 9.13933 107.331 9.494C107.527 9.84867 107.793 10.124 108.129 10.32C108.465 10.5067 108.843 10.6 109.263 10.6ZM118.272 12.098C117.516 12.098 116.835 11.9347 116.228 11.608C115.622 11.2813 115.146 10.8287 114.8 10.25C114.464 9.662 114.296 8.99933 114.296 8.262C114.296 7.52467 114.464 6.86667 114.8 6.288C115.146 5.70933 115.622 5.25667 116.228 4.93C116.835 4.60333 117.516 4.44 118.272 4.44C119.038 4.44 119.724 4.60333 120.33 4.93C120.937 5.25667 121.408 5.70933 121.744 6.288C122.09 6.86667 122.262 7.52467 122.262 8.262C122.262 8.99933 122.09 9.662 121.744 10.25C121.408 10.8287 120.937 11.2813 120.33 11.608C119.724 11.9347 119.038 12.098 118.272 12.098ZM118.272 10.6C118.916 10.6 119.448 10.3853 119.868 9.956C120.288 9.52667 120.498 8.962 120.498 8.262C120.498 7.562 120.288 6.99733 119.868 6.568C119.448 6.13867 118.916 5.924 118.272 5.924C117.628 5.924 117.096 6.13867 116.676 6.568C116.266 6.99733 116.06 7.562 116.06 8.262C116.06 8.962 116.266 9.52667 116.676 9.956C117.096 10.3853 117.628 10.6 118.272 10.6ZM127.296 12.098C126.54 12.098 125.859 11.9347 125.252 11.608C124.645 11.2813 124.169 10.8287 123.824 10.25C123.488 9.662 123.32 8.99933 123.32 8.262C123.32 7.52467 123.488 6.86667 123.824 6.288C124.169 5.70933 124.645 5.25667 125.252 4.93C125.859 4.60333 126.54 4.44 127.296 4.44C128.061 4.44 128.747 4.60333 129.354 4.93C129.961 5.25667 130.432 5.70933 130.768 6.288C131.113 6.86667 131.286 7.52467 131.286 8.262C131.286 8.99933 131.113 9.662 130.768 10.25C130.432 10.8287 129.961 11.2813 129.354 11.608C128.747 11.9347 128.061 12.098 127.296 12.098ZM127.296 10.6C127.94 10.6 128.472 10.3853 128.892 9.956C129.312 9.52667 129.522 8.962 129.522 8.262C129.522 7.562 129.312 6.99733 128.892 6.568C128.472 6.13867 127.94 5.924 127.296 5.924C126.652 5.924 126.12 6.13867 125.7 6.568C125.289 6.99733 125.084 7.562 125.084 8.262C125.084 8.962 125.289 9.52667 125.7 9.956C126.12 10.3853 126.652 10.6 127.296 10.6ZM136.011 8.794L134.709 10.026V12H132.959V1.612H134.709V7.884L138.335 4.524H140.435L137.313 7.66L140.729 12H138.601L136.011 8.794Z" fill="#757575"/>
<path d="M175.402 12.14C174.636 12.14 173.904 12.0327 173.204 11.818C172.504 11.594 171.948 11.3093 171.538 10.964L172.168 9.55C172.56 9.858 173.045 10.1147 173.624 10.32C174.202 10.5253 174.795 10.628 175.402 10.628C175.915 10.628 176.33 10.572 176.648 10.46C176.965 10.348 177.198 10.1987 177.348 10.012C177.497 9.816 177.572 9.59667 177.572 9.354C177.572 9.05533 177.464 8.81733 177.25 8.64C177.035 8.45333 176.755 8.30867 176.41 8.206C176.074 8.094 175.696 7.99133 175.276 7.898C174.865 7.80467 174.45 7.69733 174.03 7.576C173.619 7.44533 173.241 7.282 172.896 7.086C172.56 6.88067 172.284 6.61 172.07 6.274C171.855 5.938 171.748 5.50867 171.748 4.986C171.748 4.454 171.888 3.96867 172.168 3.53C172.457 3.082 172.891 2.72733 173.47 2.466C174.058 2.19533 174.8 2.06 175.696 2.06C176.284 2.06 176.867 2.13467 177.446 2.284C178.024 2.43333 178.528 2.648 178.958 2.928L178.384 4.342C177.945 4.08067 177.492 3.88933 177.026 3.768C176.559 3.63733 176.111 3.572 175.682 3.572C175.178 3.572 174.767 3.63267 174.45 3.754C174.142 3.87533 173.913 4.034 173.764 4.23C173.624 4.426 173.554 4.65 173.554 4.902C173.554 5.20067 173.656 5.44333 173.862 5.63C174.076 5.80733 174.352 5.94733 174.688 6.05C175.033 6.15267 175.416 6.25533 175.836 6.358C176.256 6.45133 176.671 6.55867 177.082 6.68C177.502 6.80133 177.88 6.96 178.216 7.156C178.561 7.352 178.836 7.618 179.042 7.954C179.256 8.29 179.364 8.71467 179.364 9.228C179.364 9.75067 179.219 10.236 178.93 10.684C178.65 11.1227 178.216 11.4773 177.628 11.748C177.04 12.0093 176.298 12.14 175.402 12.14ZM183.814 12.098C182.993 12.098 182.358 11.888 181.91 11.468C181.462 11.0387 181.238 10.4087 181.238 9.578V2.872H182.988V9.536C182.988 9.89067 183.077 10.166 183.254 10.362C183.441 10.558 183.698 10.656 184.024 10.656C184.416 10.656 184.743 10.5533 185.004 10.348L185.494 11.594C185.289 11.762 185.037 11.888 184.738 11.972C184.44 12.056 184.132 12.098 183.814 12.098ZM180.006 5.98V4.58H184.99V5.98H180.006ZM191.54 12V10.488L191.442 10.166V7.52C191.442 7.00667 191.288 6.61 190.98 6.33C190.672 6.04067 190.205 5.896 189.58 5.896C189.16 5.896 188.745 5.96133 188.334 6.092C187.933 6.22267 187.592 6.40467 187.312 6.638L186.626 5.364C187.027 5.056 187.503 4.82733 188.054 4.678C188.614 4.51933 189.193 4.44 189.79 4.44C190.873 4.44 191.708 4.70133 192.296 5.224C192.893 5.73733 193.192 6.53533 193.192 7.618V12H191.54ZM189.188 12.098C188.628 12.098 188.138 12.0047 187.718 11.818C187.298 11.622 186.971 11.356 186.738 11.02C186.514 10.6747 186.402 10.2873 186.402 9.858C186.402 9.438 186.5 9.06 186.696 8.724C186.901 8.388 187.233 8.122 187.69 7.926C188.147 7.73 188.754 7.632 189.51 7.632H191.68V8.794H189.636C189.039 8.794 188.637 8.892 188.432 9.088C188.227 9.27467 188.124 9.508 188.124 9.788C188.124 10.1053 188.25 10.3573 188.502 10.544C188.754 10.7307 189.104 10.824 189.552 10.824C189.981 10.824 190.364 10.726 190.7 10.53C191.045 10.334 191.293 10.0447 191.442 9.662L191.736 10.712C191.568 11.1507 191.265 11.4913 190.826 11.734C190.397 11.9767 189.851 12.098 189.188 12.098ZM198.252 12.098C197.43 12.098 196.796 11.888 196.348 11.468C195.9 11.0387 195.676 10.4087 195.676 9.578V2.872H197.426V9.536C197.426 9.89067 197.514 10.166 197.692 10.362C197.878 10.558 198.135 10.656 198.462 10.656C198.854 10.656 199.18 10.5533 199.442 10.348L199.932 11.594C199.726 11.762 199.474 11.888 199.176 11.972C198.877 12.056 198.569 12.098 198.252 12.098ZM194.444 5.98V4.58H199.428V5.98H194.444ZM201.371 12V4.524H203.121V12H201.371ZM202.253 3.292C201.927 3.292 201.656 3.18933 201.441 2.984C201.236 2.77867 201.133 2.53133 201.133 2.242C201.133 1.94333 201.236 1.696 201.441 1.5C201.656 1.29467 201.927 1.192 202.253 1.192C202.58 1.192 202.846 1.29 203.051 1.486C203.266 1.67267 203.373 1.91067 203.373 2.2C203.373 2.508 203.271 2.76933 203.065 2.984C202.86 3.18933 202.589 3.292 202.253 3.292ZM207.728 12.098C207.103 12.098 206.501 12.0187 205.922 11.86C205.353 11.692 204.9 11.4913 204.564 11.258L205.236 9.928C205.572 10.1427 205.974 10.32 206.44 10.46C206.907 10.6 207.374 10.67 207.84 10.67C208.391 10.67 208.788 10.5953 209.03 10.446C209.282 10.2967 209.408 10.096 209.408 9.844C209.408 9.63867 209.324 9.48467 209.156 9.382C208.988 9.27 208.769 9.186 208.498 9.13C208.228 9.074 207.924 9.02267 207.588 8.976C207.262 8.92933 206.93 8.86867 206.594 8.794C206.268 8.71 205.969 8.59333 205.698 8.444C205.428 8.28533 205.208 8.07533 205.04 7.814C204.872 7.55267 204.788 7.20733 204.788 6.778C204.788 6.302 204.924 5.89133 205.194 5.546C205.465 5.19133 205.843 4.92067 206.328 4.734C206.823 4.538 207.406 4.44 208.078 4.44C208.582 4.44 209.091 4.496 209.604 4.608C210.118 4.72 210.542 4.87867 210.878 5.084L210.206 6.414C209.852 6.19933 209.492 6.05467 209.128 5.98C208.774 5.896 208.419 5.854 208.064 5.854C207.532 5.854 207.136 5.93333 206.874 6.092C206.622 6.25067 206.496 6.45133 206.496 6.694C206.496 6.918 206.58 7.086 206.748 7.198C206.916 7.31 207.136 7.39867 207.406 7.464C207.677 7.52933 207.976 7.58533 208.302 7.632C208.638 7.66933 208.97 7.73 209.296 7.814C209.623 7.898 209.922 8.01467 210.192 8.164C210.472 8.304 210.696 8.50467 210.864 8.766C211.032 9.02733 211.116 9.368 211.116 9.788C211.116 10.2547 210.976 10.6607 210.696 11.006C210.426 11.3513 210.038 11.622 209.534 11.818C209.03 12.0047 208.428 12.098 207.728 12.098ZM215.437 12.098C214.616 12.098 213.981 11.888 213.533 11.468C213.085 11.0387 212.861 10.4087 212.861 9.578V2.872H214.611V9.536C214.611 9.89067 214.7 10.166 214.877 10.362C215.064 10.558 215.321 10.656 215.647 10.656C216.039 10.656 216.366 10.5533 216.627 10.348L217.117 11.594C216.912 11.762 216.66 11.888 216.361 11.972C216.063 12.056 215.755 12.098 215.437 12.098ZM211.629 5.98V4.58H216.613V5.98H211.629ZM218.557 12V4.524H220.307V12H218.557ZM219.439 3.292C219.112 3.292 218.842 3.18933 218.627 2.984C218.422 2.77867 218.319 2.53133 218.319 2.242C218.319 1.94333 218.422 1.696 218.627 1.5C218.842 1.29467 219.112 1.192 219.439 1.192C219.766 1.192 220.032 1.29 220.237 1.486C220.452 1.67267 220.559 1.91067 220.559 2.2C220.559 2.508 220.456 2.76933 220.251 2.984C220.046 3.18933 219.775 3.292 219.439 3.292ZM226.034 12.098C225.25 12.098 224.55 11.9347 223.934 11.608C223.327 11.272 222.851 10.8147 222.506 10.236C222.16 9.65733 221.988 8.99933 221.988 8.262C221.988 7.51533 222.16 6.85733 222.506 6.288C222.851 5.70933 223.327 5.25667 223.934 4.93C224.55 4.60333 225.25 4.44 226.034 4.44C226.762 4.44 227.401 4.58933 227.952 4.888C228.512 5.17733 228.936 5.60667 229.226 6.176L227.882 6.96C227.658 6.60533 227.382 6.344 227.056 6.176C226.738 6.008 226.393 5.924 226.02 5.924C225.59 5.924 225.203 6.01733 224.858 6.204C224.512 6.39067 224.242 6.66133 224.046 7.016C223.85 7.36133 223.752 7.77667 223.752 8.262C223.752 8.74733 223.85 9.16733 224.046 9.522C224.242 9.86733 224.512 10.1333 224.858 10.32C225.203 10.5067 225.59 10.6 226.02 10.6C226.393 10.6 226.738 10.516 227.056 10.348C227.382 10.18 227.658 9.91867 227.882 9.564L229.226 10.348C228.936 10.908 228.512 11.342 227.952 11.65C227.401 11.9487 226.762 12.098 226.034 12.098ZM233.049 12.098C232.423 12.098 231.821 12.0187 231.243 11.86C230.673 11.692 230.221 11.4913 229.885 11.258L230.557 9.928C230.893 10.1427 231.294 10.32 231.761 10.46C232.227 10.6 232.694 10.67 233.161 10.67C233.711 10.67 234.108 10.5953 234.351 10.446C234.603 10.2967 234.729 10.096 234.729 9.844C234.729 9.63867 234.645 9.48467 234.477 9.382C234.309 9.27 234.089 9.186 233.819 9.13C233.548 9.074 233.245 9.02267 232.909 8.976C232.582 8.92933 232.251 8.86867 231.915 8.794C231.588 8.71 231.289 8.59333 231.019 8.444C230.748 8.28533 230.529 8.07533 230.361 7.814C230.193 7.55267 230.109 7.20733 230.109 6.778C230.109 6.302 230.244 5.89133 230.515 5.546C230.785 5.19133 231.163 4.92067 231.649 4.734C232.143 4.538 232.727 4.44 233.399 4.44C233.903 4.44 234.411 4.496 234.925 4.608C235.438 4.72 235.863 4.87867 236.199 5.084L235.527 6.414C235.172 6.19933 234.813 6.05467 234.449 5.98C234.094 5.896 233.739 5.854 233.385 5.854C232.853 5.854 232.456 5.93333 232.195 6.092C231.943 6.25067 231.817 6.45133 231.817 6.694C231.817 6.918 231.901 7.086 232.069 7.198C232.237 7.31 232.456 7.39867 232.727 7.464C232.997 7.52933 233.296 7.58533 233.623 7.632C233.959 7.66933 234.29 7.73 234.617 7.814C234.943 7.898 235.242 8.01467 235.513 8.164C235.793 8.304 236.017 8.50467 236.185 8.766C236.353 9.02733 236.437 9.368 236.437 9.788C236.437 10.2547 236.297 10.6607 236.017 11.006C235.746 11.3513 235.359 11.622 234.855 11.818C234.351 12.0047 233.749 12.098 233.049 12.098Z" fill="#757575"/>
<path d="M271.402 12.14C270.646 12.14 269.913 12.0327 269.204 11.818C268.504 11.6033 267.948 11.3187 267.538 10.964L268.168 9.55C268.569 9.86733 269.059 10.1287 269.638 10.334C270.226 10.53 270.814 10.628 271.402 10.628C272.13 10.628 272.671 10.5113 273.026 10.278C273.39 10.0447 273.572 9.73667 273.572 9.354C273.572 9.074 273.469 8.84533 273.264 8.668C273.068 8.48133 272.816 8.33667 272.508 8.234C272.2 8.13133 271.78 8.01467 271.248 7.884C270.501 7.70667 269.894 7.52933 269.428 7.352C268.97 7.17467 268.574 6.89933 268.238 6.526C267.911 6.14333 267.748 5.63 267.748 4.986C267.748 4.44467 267.892 3.95467 268.182 3.516C268.48 3.068 268.924 2.71333 269.512 2.452C270.109 2.19067 270.837 2.06 271.696 2.06C272.293 2.06 272.881 2.13467 273.46 2.284C274.038 2.43333 274.538 2.648 274.958 2.928L274.384 4.342C273.954 4.09 273.506 3.89867 273.04 3.768C272.573 3.63733 272.12 3.572 271.682 3.572C270.963 3.572 270.426 3.69333 270.072 3.936C269.726 4.17867 269.554 4.50067 269.554 4.902C269.554 5.182 269.652 5.41067 269.848 5.588C270.053 5.76533 270.31 5.90533 270.618 6.008C270.926 6.11067 271.346 6.22733 271.878 6.358C272.606 6.526 273.203 6.70333 273.67 6.89C274.136 7.06733 274.533 7.34267 274.86 7.716C275.196 8.08933 275.364 8.59333 275.364 9.228C275.364 9.76933 275.214 10.2593 274.916 10.698C274.626 11.1367 274.183 11.4867 273.586 11.748C272.988 12.0093 272.26 12.14 271.402 12.14ZM281.144 4.44C281.872 4.44 282.521 4.59867 283.09 4.916C283.669 5.23333 284.122 5.68133 284.448 6.26C284.775 6.83867 284.938 7.506 284.938 8.262C284.938 9.018 284.775 9.69 284.448 10.278C284.122 10.8567 283.669 11.3047 283.09 11.622C282.521 11.9393 281.872 12.098 281.144 12.098C280.136 12.098 279.338 11.762 278.75 11.09V14.716H277V4.524H278.666V5.504C278.956 5.14933 279.31 4.88333 279.73 4.706C280.16 4.52867 280.631 4.44 281.144 4.44ZM280.948 10.6C281.592 10.6 282.12 10.3853 282.53 9.956C282.95 9.52667 283.16 8.962 283.16 8.262C283.16 7.562 282.95 6.99733 282.53 6.568C282.12 6.13867 281.592 5.924 280.948 5.924C280.528 5.924 280.15 6.022 279.814 6.218C279.478 6.40467 279.212 6.67533 279.016 7.03C278.82 7.38467 278.722 7.79533 278.722 8.262C278.722 8.72867 278.82 9.13933 279.016 9.494C279.212 9.84867 279.478 10.124 279.814 10.32C280.15 10.5067 280.528 10.6 280.948 10.6ZM288.264 5.616C288.768 4.832 289.655 4.44 290.924 4.44V6.106C290.775 6.078 290.639 6.064 290.518 6.064C289.837 6.064 289.305 6.26467 288.922 6.666C288.539 7.058 288.348 7.62733 288.348 8.374V12H286.598V4.524H288.264V5.616ZM292.408 4.524H294.158V12H292.408V4.524ZM293.29 3.292C292.973 3.292 292.707 3.194 292.492 2.998C292.278 2.79267 292.17 2.54067 292.17 2.242C292.17 1.94333 292.278 1.696 292.492 1.5C292.707 1.29467 292.973 1.192 293.29 1.192C293.608 1.192 293.874 1.29 294.088 1.486C294.303 1.67267 294.41 1.91067 294.41 2.2C294.41 2.508 294.303 2.76933 294.088 2.984C293.883 3.18933 293.617 3.292 293.29 3.292ZM300.697 4.44C301.64 4.44 302.396 4.71533 302.965 5.266C303.535 5.81667 303.819 6.63333 303.819 7.716V12H302.069V7.94C302.069 7.28667 301.915 6.79667 301.607 6.47C301.299 6.134 300.861 5.966 300.291 5.966C299.647 5.966 299.139 6.162 298.765 6.554C298.392 6.93667 298.205 7.492 298.205 8.22V12H296.455V4.524H298.121V5.49C298.411 5.14467 298.775 4.88333 299.213 4.706C299.652 4.52867 300.147 4.44 300.697 4.44ZM310.533 11.594C310.328 11.762 310.076 11.888 309.777 11.972C309.488 12.056 309.18 12.098 308.853 12.098C308.032 12.098 307.397 11.8833 306.949 11.454C306.501 11.0247 306.277 10.3993 306.277 9.578V5.98H305.045V4.58H306.277V2.872H308.027V4.58H310.029V5.98H308.027V9.536C308.027 9.9 308.116 10.18 308.293 10.376C308.471 10.5627 308.727 10.656 309.063 10.656C309.455 10.656 309.782 10.5533 310.043 10.348L310.533 11.594Z" fill="#757575"/>
<path d="M348.72 9.732H343.82L342.854 12H340.978L345.388 2.2H347.18L351.604 12H349.7L348.72 9.732ZM348.118 8.304L346.27 4.02L344.436 8.304H348.118ZM359.783 4.524V12H358.117V11.048C357.837 11.384 357.487 11.6453 357.067 11.832C356.647 12.0093 356.195 12.098 355.709 12.098C354.711 12.098 353.922 11.8227 353.343 11.272C352.774 10.712 352.489 9.886 352.489 8.794V4.524H354.239V8.556C354.239 9.228 354.389 9.732 354.687 10.068C354.995 10.3947 355.429 10.558 355.989 10.558C356.615 10.558 357.109 10.3667 357.473 9.984C357.847 9.592 358.033 9.032 358.033 8.304V4.524H359.783ZM369.397 1.612V12H367.717V11.034C367.427 11.3887 367.068 11.6547 366.639 11.832C366.219 12.0093 365.752 12.098 365.239 12.098C364.52 12.098 363.871 11.9393 363.293 11.622C362.723 11.3047 362.275 10.8567 361.949 10.278C361.622 9.69 361.459 9.018 361.459 8.262C361.459 7.506 361.622 6.83867 361.949 6.26C362.275 5.68133 362.723 5.23333 363.293 4.916C363.871 4.59867 364.52 4.44 365.239 4.44C365.733 4.44 366.186 4.524 366.597 4.692C367.007 4.86 367.357 5.112 367.647 5.448V1.612H369.397ZM365.449 10.6C365.869 10.6 366.247 10.5067 366.583 10.32C366.919 10.124 367.185 9.84867 367.381 9.494C367.577 9.13933 367.675 8.72867 367.675 8.262C367.675 7.79533 367.577 7.38467 367.381 7.03C367.185 6.67533 366.919 6.40467 366.583 6.218C366.247 6.022 365.869 5.924 365.449 5.924C365.029 5.924 364.651 6.022 364.315 6.218C363.979 6.40467 363.713 6.67533 363.517 7.03C363.321 7.38467 363.223 7.79533 363.223 8.262C363.223 8.72867 363.321 9.13933 363.517 9.494C363.713 9.84867 363.979 10.124 364.315 10.32C364.651 10.5067 365.029 10.6 365.449 10.6ZM371.686 4.524H373.436V12H371.686V4.524ZM372.568 3.292C372.251 3.292 371.985 3.194 371.77 2.998C371.555 2.79267 371.448 2.54067 371.448 2.242C371.448 1.94333 371.555 1.696 371.77 1.5C371.985 1.29467 372.251 1.192 372.568 1.192C372.885 1.192 373.151 1.29 373.366 1.486C373.581 1.67267 373.688 1.91067 373.688 2.2C373.688 2.508 373.581 2.76933 373.366 2.984C373.161 3.18933 372.895 3.292 372.568 3.292ZM379.093 12.098C378.337 12.098 377.655 11.9347 377.049 11.608C376.442 11.2813 375.966 10.8287 375.621 10.25C375.285 9.662 375.117 8.99933 375.117 8.262C375.117 7.52467 375.285 6.86667 375.621 6.288C375.966 5.70933 376.442 5.25667 377.049 4.93C377.655 4.60333 378.337 4.44 379.093 4.44C379.858 4.44 380.544 4.60333 381.151 4.93C381.757 5.25667 382.229 5.70933 382.565 6.288C382.91 6.86667 383.083 7.52467 383.083 8.262C383.083 8.99933 382.91 9.662 382.565 10.25C382.229 10.8287 381.757 11.2813 381.151 11.608C380.544 11.9347 379.858 12.098 379.093 12.098ZM379.093 10.6C379.737 10.6 380.269 10.3853 380.689 9.956C381.109 9.52667 381.319 8.962 381.319 8.262C381.319 7.562 381.109 6.99733 380.689 6.568C380.269 6.13867 379.737 5.924 379.093 5.924C378.449 5.924 377.917 6.13867 377.497 6.568C377.086 6.99733 376.881 7.562 376.881 8.262C376.881 8.962 377.086 9.52667 377.497 9.956C377.917 10.3853 378.449 10.6 379.093 10.6ZM384.515 7.38H388.365V8.836H384.515V7.38ZM393.846 12.098C393.072 12.098 392.376 11.9347 391.76 11.608C391.144 11.2813 390.664 10.8287 390.318 10.25C389.973 9.662 389.8 8.99933 389.8 8.262C389.8 7.52467 389.973 6.86667 390.318 6.288C390.664 5.70933 391.14 5.25667 391.746 4.93C392.362 4.60333 393.062 4.44 393.846 4.44C394.584 4.44 395.228 4.58933 395.778 4.888C396.338 5.18667 396.758 5.616 397.038 6.176L395.694 6.96C395.48 6.61467 395.209 6.358 394.882 6.19C394.565 6.01267 394.215 5.924 393.832 5.924C393.179 5.924 392.638 6.13867 392.208 6.568C391.779 6.988 391.564 7.55267 391.564 8.262C391.564 8.97133 391.774 9.54067 392.194 9.97C392.624 10.39 393.17 10.6 393.832 10.6C394.215 10.6 394.565 10.516 394.882 10.348C395.209 10.1707 395.48 9.90933 395.694 9.564L397.038 10.348C396.749 10.908 396.324 11.342 395.764 11.65C395.214 11.9487 394.574 12.098 393.846 12.098ZM401.407 4.44C402.508 4.44 403.348 4.706 403.927 5.238C404.515 5.76067 404.809 6.554 404.809 7.618V12H403.157V11.09C402.942 11.4167 402.634 11.6687 402.233 11.846C401.841 12.014 401.365 12.098 400.805 12.098C400.245 12.098 399.755 12.0047 399.335 11.818C398.915 11.622 398.588 11.356 398.355 11.02C398.131 10.6747 398.019 10.2873 398.019 9.858C398.019 9.186 398.266 8.64933 398.761 8.248C399.265 7.83733 400.054 7.632 401.127 7.632H403.059V7.52C403.059 6.99733 402.9 6.596 402.583 6.316C402.275 6.036 401.813 5.896 401.197 5.896C400.777 5.896 400.362 5.96133 399.951 6.092C399.55 6.22267 399.209 6.40467 398.929 6.638L398.243 5.364C398.635 5.06533 399.106 4.83667 399.657 4.678C400.208 4.51933 400.791 4.44 401.407 4.44ZM401.169 10.824C401.608 10.824 401.995 10.726 402.331 10.53C402.676 10.3247 402.919 10.0353 403.059 9.662V8.794H401.253C400.245 8.794 399.741 9.12533 399.741 9.788C399.741 10.1053 399.867 10.3573 400.119 10.544C400.371 10.7307 400.721 10.824 401.169 10.824ZM407.055 1.612H408.805V12H407.055V1.612ZM411.102 1.612H412.852V12H411.102V1.612Z" fill="#757575"/>
<path d="M982.978 12L987.388 2.2H989.18L993.604 12H991.7L987.906 3.166H988.634L984.854 12H982.978ZM985.008 9.732L985.498 8.304H990.79L991.28 9.732H985.008ZM994.682 12V1.612H996.432V12H994.682ZM1002.24 12.098C1001.41 12.098 1000.68 11.9347 1000.06 11.608C999.443 11.272 998.962 10.8147 998.617 10.236C998.281 9.65733 998.113 8.99933 998.113 8.262C998.113 7.51533 998.276 6.85733 998.603 6.288C998.939 5.70933 999.396 5.25667 999.975 4.93C1000.56 4.60333 1001.23 4.44 1001.98 4.44C1002.7 4.44 1003.35 4.59867 1003.92 4.916C1004.49 5.23333 1004.94 5.68133 1005.27 6.26C1005.59 6.83867 1005.76 7.52 1005.76 8.304C1005.76 8.37867 1005.75 8.46267 1005.74 8.556C1005.74 8.64933 1005.74 8.738 1005.73 8.822H999.499V7.66H1004.8L1004.12 8.024C1004.13 7.59467 1004.04 7.21667 1003.85 6.89C1003.67 6.56333 1003.41 6.30667 1003.08 6.12C1002.77 5.93333 1002.4 5.84 1001.98 5.84C1001.55 5.84 1001.17 5.93333 1000.84 6.12C1000.53 6.30667 1000.27 6.568 1000.09 6.904C999.909 7.23067 999.821 7.618 999.821 8.066V8.346C999.821 8.794 999.923 9.19067 1000.13 9.536C1000.33 9.88133 1000.62 10.1473 1001 10.334C1001.37 10.5207 1001.8 10.614 1002.28 10.614C1002.7 10.614 1003.08 10.5487 1003.42 10.418C1003.75 10.2873 1004.05 10.082 1004.31 9.802L1005.25 10.88C1004.92 11.272 1004.49 11.5753 1003.98 11.79C1003.47 11.9953 1002.9 12.098 1002.24 12.098ZM1006.21 12L1009.5 7.716L1009.47 8.654L1006.34 4.524H1008.28L1010.48 7.464H1009.74L1011.95 4.524H1013.84L1010.68 8.654L1010.69 7.716L1013.97 12H1011.99L1009.68 8.878L1010.41 8.976L1008.14 12H1006.21Z" fill="#757575"/>
<path d="M1050.94 12.14C1050.18 12.14 1049.47 12.0187 1048.83 11.776C1048.19 11.524 1047.64 11.174 1047.16 10.726C1046.69 10.2687 1046.32 9.732 1046.06 9.116C1045.79 8.5 1045.66 7.828 1045.66 7.1C1045.66 6.372 1045.79 5.7 1046.06 5.084C1046.32 4.468 1046.69 3.936 1047.16 3.488C1047.65 3.03067 1048.21 2.68067 1048.86 2.438C1049.5 2.186 1050.2 2.06 1050.97 2.06C1051.8 2.06 1052.55 2.19533 1053.21 2.466C1053.88 2.73667 1054.45 3.13333 1054.9 3.656L1053.76 4.776C1053.37 4.39333 1052.96 4.11333 1052.51 3.936C1052.07 3.74933 1051.59 3.656 1051.05 3.656C1050.54 3.656 1050.06 3.74 1049.63 3.908C1049.19 4.076 1048.81 4.314 1048.49 4.622C1048.17 4.93 1047.93 5.294 1047.75 5.714C1047.58 6.134 1047.5 6.596 1047.5 7.1C1047.5 7.59467 1047.58 8.052 1047.75 8.472C1047.93 8.892 1048.17 9.26067 1048.49 9.578C1048.81 9.886 1049.18 10.124 1049.61 10.292C1050.04 10.46 1050.52 10.544 1051.04 10.544C1051.52 10.544 1051.99 10.4693 1052.44 10.32C1052.9 10.1613 1053.33 9.9 1053.74 9.536L1054.78 10.894C1054.26 11.3047 1053.67 11.6173 1052.99 11.832C1052.31 12.0373 1051.63 12.14 1050.94 12.14ZM1053.06 10.656V6.988H1054.78V10.894L1053.06 10.656ZM1061.62 12V10.488L1061.52 10.166V7.52C1061.52 7.00667 1061.36 6.61 1061.06 6.33C1060.75 6.04067 1060.28 5.896 1059.66 5.896C1059.24 5.896 1058.82 5.96133 1058.41 6.092C1058.01 6.22267 1057.67 6.40467 1057.39 6.638L1056.7 5.364C1057.1 5.056 1057.58 4.82733 1058.13 4.678C1058.69 4.51933 1059.27 4.44 1059.87 4.44C1060.95 4.44 1061.78 4.70133 1062.37 5.224C1062.97 5.73733 1063.27 6.53533 1063.27 7.618V12H1061.62ZM1059.26 12.098C1058.7 12.098 1058.21 12.0047 1057.79 11.818C1057.37 11.622 1057.05 11.356 1056.81 11.02C1056.59 10.6747 1056.48 10.2873 1056.48 9.858C1056.48 9.438 1056.58 9.06 1056.77 8.724C1056.98 8.388 1057.31 8.122 1057.77 7.926C1058.22 7.73 1058.83 7.632 1059.59 7.632H1061.76V8.794H1059.71C1059.11 8.794 1058.71 8.892 1058.51 9.088C1058.3 9.27467 1058.2 9.508 1058.2 9.788C1058.2 10.1053 1058.33 10.3573 1058.58 10.544C1058.83 10.7307 1059.18 10.824 1059.63 10.824C1060.06 10.824 1060.44 10.726 1060.78 10.53C1061.12 10.334 1061.37 10.0447 1061.52 9.662L1061.81 10.712C1061.64 11.1507 1061.34 11.4913 1060.9 11.734C1060.47 11.9767 1059.93 12.098 1059.26 12.098ZM1069.66 12.098C1069.02 12.098 1068.46 11.958 1067.96 11.678C1067.47 11.398 1067.08 10.978 1066.79 10.418C1066.51 9.84867 1066.37 9.13 1066.37 8.262C1066.37 7.38467 1066.51 6.666 1066.8 6.106C1067.1 5.546 1067.5 5.13067 1067.99 4.86C1068.5 4.58 1069.05 4.44 1069.66 4.44C1070.4 4.44 1071.04 4.59867 1071.6 4.916C1072.17 5.23333 1072.62 5.67667 1072.95 6.246C1073.28 6.81533 1073.45 7.48733 1073.45 8.262C1073.45 9.03667 1073.28 9.70867 1072.95 10.278C1072.62 10.8473 1072.17 11.2953 1071.6 11.622C1071.04 11.9393 1070.4 12.098 1069.66 12.098ZM1065.51 12V1.612H1067.26V6.26L1067.12 8.248L1067.18 10.236V12H1065.51ZM1069.46 10.6C1069.88 10.6 1070.26 10.5067 1070.58 10.32C1070.92 10.1333 1071.18 9.86267 1071.38 9.508C1071.58 9.15333 1071.67 8.738 1071.67 8.262C1071.67 7.77667 1071.58 7.36133 1071.38 7.016C1071.18 6.66133 1070.92 6.39067 1070.58 6.204C1070.26 6.01733 1069.88 5.924 1069.46 5.924C1069.04 5.924 1068.66 6.01733 1068.33 6.204C1067.99 6.39067 1067.73 6.66133 1067.53 7.016C1067.33 7.36133 1067.24 7.77667 1067.24 8.262C1067.24 8.738 1067.33 9.15333 1067.53 9.508C1067.73 9.86267 1067.99 10.1333 1068.33 10.32C1068.66 10.5067 1069.04 10.6 1069.46 10.6ZM1075.11 12V4.524H1076.78V6.582L1076.58 5.98C1076.81 5.476 1077.16 5.09333 1077.63 4.832C1078.12 4.57067 1078.72 4.44 1079.44 4.44V6.106C1079.36 6.08733 1079.29 6.078 1079.23 6.078C1079.16 6.06867 1079.1 6.064 1079.03 6.064C1078.37 6.064 1077.84 6.26 1077.45 6.652C1077.06 7.03467 1076.86 7.60867 1076.86 8.374V12H1075.11ZM1080.92 12V4.524H1082.67V12H1080.92ZM1081.8 3.292C1081.48 3.292 1081.21 3.18933 1080.99 2.984C1080.79 2.77867 1080.68 2.53133 1080.68 2.242C1080.68 1.94333 1080.79 1.696 1080.99 1.5C1081.21 1.29467 1081.48 1.192 1081.8 1.192C1082.13 1.192 1082.4 1.29 1082.6 1.486C1082.82 1.67267 1082.92 1.91067 1082.92 2.2C1082.92 2.508 1082.82 2.76933 1082.62 2.984C1082.41 3.18933 1082.14 3.292 1081.8 3.292ZM1088.48 12.098C1087.65 12.098 1086.92 11.9347 1086.3 11.608C1085.68 11.272 1085.2 10.8147 1084.86 10.236C1084.52 9.65733 1084.35 8.99933 1084.35 8.262C1084.35 7.51533 1084.52 6.85733 1084.84 6.288C1085.18 5.70933 1085.64 5.25667 1086.22 4.93C1086.8 4.60333 1087.47 4.44 1088.22 4.44C1088.95 4.44 1089.59 4.59867 1090.16 4.916C1090.73 5.23333 1091.18 5.68133 1091.51 6.26C1091.83 6.83867 1092 7.52 1092 8.304C1092 8.37867 1091.99 8.46267 1091.98 8.556C1091.98 8.64933 1091.98 8.738 1091.97 8.822H1085.74V7.66H1091.05L1090.36 8.024C1090.37 7.59467 1090.28 7.21667 1090.09 6.89C1089.91 6.56333 1089.65 6.30667 1089.32 6.12C1089.01 5.93333 1088.64 5.84 1088.22 5.84C1087.79 5.84 1087.41 5.93333 1087.08 6.12C1086.77 6.30667 1086.51 6.568 1086.33 6.904C1086.15 7.23067 1086.06 7.618 1086.06 8.066V8.346C1086.06 8.794 1086.16 9.19067 1086.37 9.536C1086.57 9.88133 1086.86 10.1473 1087.24 10.334C1087.61 10.5207 1088.04 10.614 1088.53 10.614C1088.95 10.614 1089.32 10.5487 1089.66 10.418C1090 10.2873 1090.29 10.082 1090.56 9.802L1091.49 10.88C1091.16 11.272 1090.73 11.5753 1090.22 11.79C1089.72 11.9953 1089.14 12.098 1088.48 12.098ZM1093.68 12V1.612H1095.43V12H1093.68Z" fill="#757575"/>
<path d="M1128.36 12V2.2H1129.86L1134.15 9.354H1133.36L1137.58 2.2H1139.07L1139.09 12H1137.37L1137.35 4.902H1137.72L1134.13 10.88H1133.32L1129.68 4.902H1130.1V12H1128.36ZM1146.17 12V10.488L1146.07 10.166V7.52C1146.07 7.00667 1145.92 6.61 1145.61 6.33C1145.3 6.04067 1144.84 5.896 1144.21 5.896C1143.79 5.896 1143.38 5.96133 1142.97 6.092C1142.57 6.22267 1142.22 6.40467 1141.94 6.638L1141.26 5.364C1141.66 5.056 1142.14 4.82733 1142.69 4.678C1143.25 4.51933 1143.83 4.44 1144.42 4.44C1145.51 4.44 1146.34 4.70133 1146.93 5.224C1147.53 5.73733 1147.82 6.53533 1147.82 7.618V12H1146.17ZM1143.82 12.098C1143.26 12.098 1142.77 12.0047 1142.35 11.818C1141.93 11.622 1141.6 11.356 1141.37 11.02C1141.15 10.6747 1141.03 10.2873 1141.03 9.858C1141.03 9.438 1141.13 9.06 1141.33 8.724C1141.53 8.388 1141.87 8.122 1142.32 7.926C1142.78 7.73 1143.39 7.632 1144.14 7.632H1146.31V8.794H1144.27C1143.67 8.794 1143.27 8.892 1143.06 9.088C1142.86 9.27467 1142.76 9.508 1142.76 9.788C1142.76 10.1053 1142.88 10.3573 1143.13 10.544C1143.39 10.7307 1143.74 10.824 1144.18 10.824C1144.61 10.824 1145 10.726 1145.33 10.53C1145.68 10.334 1145.93 10.0447 1146.07 9.662L1146.37 10.712C1146.2 11.1507 1145.9 11.4913 1145.46 11.734C1145.03 11.9767 1144.48 12.098 1143.82 12.098ZM1150.07 12V4.524H1151.74V6.582L1151.54 5.98C1151.76 5.476 1152.11 5.09333 1152.59 4.832C1153.08 4.57067 1153.68 4.44 1154.4 4.44V6.106C1154.32 6.08733 1154.25 6.078 1154.19 6.078C1154.12 6.06867 1154.06 6.064 1153.99 6.064C1153.33 6.064 1152.8 6.26 1152.41 6.652C1152.02 7.03467 1151.82 7.60867 1151.82 8.374V12H1150.07ZM1159.24 12.098C1158.46 12.098 1157.76 11.9347 1157.14 11.608C1156.54 11.272 1156.06 10.8147 1155.71 10.236C1155.37 9.65733 1155.2 8.99933 1155.2 8.262C1155.2 7.51533 1155.37 6.85733 1155.71 6.288C1156.06 5.70933 1156.54 5.25667 1157.14 4.93C1157.76 4.60333 1158.46 4.44 1159.24 4.44C1159.97 4.44 1160.61 4.58933 1161.16 4.888C1161.72 5.17733 1162.15 5.60667 1162.43 6.176L1161.09 6.96C1160.87 6.60533 1160.59 6.344 1160.26 6.176C1159.95 6.008 1159.6 5.924 1159.23 5.924C1158.8 5.924 1158.41 6.01733 1158.07 6.204C1157.72 6.39067 1157.45 6.66133 1157.25 7.016C1157.06 7.36133 1156.96 7.77667 1156.96 8.262C1156.96 8.74733 1157.06 9.16733 1157.25 9.522C1157.45 9.86733 1157.72 10.1333 1158.07 10.32C1158.41 10.5067 1158.8 10.6 1159.23 10.6C1159.6 10.6 1159.95 10.516 1160.26 10.348C1160.59 10.18 1160.87 9.91867 1161.09 9.564L1162.43 10.348C1162.15 10.908 1161.72 11.342 1161.16 11.65C1160.61 11.9487 1159.97 12.098 1159.24 12.098ZM1167.11 12.098C1166.48 12.098 1165.92 11.9813 1165.43 11.748C1164.95 11.5053 1164.57 11.1413 1164.3 10.656C1164.03 10.1613 1163.89 9.54067 1163.89 8.794V4.524H1165.64V8.556C1165.64 9.228 1165.79 9.732 1166.09 10.068C1166.4 10.3947 1166.83 10.558 1167.39 10.558C1167.8 10.558 1168.16 10.474 1168.46 10.306C1168.76 10.138 1169 9.886 1169.17 9.55C1169.35 9.214 1169.44 8.79867 1169.44 8.304V4.524H1171.19V12H1169.52V9.984L1169.81 10.6C1169.56 11.0853 1169.19 11.4587 1168.71 11.72C1168.22 11.972 1167.69 12.098 1167.11 12.098ZM1175.79 12.098C1175.16 12.098 1174.56 12.0187 1173.98 11.86C1173.41 11.692 1172.96 11.4913 1172.62 11.258L1173.29 9.928C1173.63 10.1427 1174.03 10.32 1174.5 10.46C1174.97 10.6 1175.43 10.67 1175.9 10.67C1176.45 10.67 1176.85 10.5953 1177.09 10.446C1177.34 10.2967 1177.47 10.096 1177.47 9.844C1177.47 9.63867 1177.38 9.48467 1177.21 9.382C1177.05 9.27 1176.83 9.186 1176.56 9.13C1176.29 9.074 1175.98 9.02267 1175.65 8.976C1175.32 8.92933 1174.99 8.86867 1174.65 8.794C1174.33 8.71 1174.03 8.59333 1173.76 8.444C1173.49 8.28533 1173.27 8.07533 1173.1 7.814C1172.93 7.55267 1172.85 7.20733 1172.85 6.778C1172.85 6.302 1172.98 5.89133 1173.25 5.546C1173.52 5.19133 1173.9 4.92067 1174.39 4.734C1174.88 4.538 1175.46 4.44 1176.14 4.44C1176.64 4.44 1177.15 4.496 1177.66 4.608C1178.18 4.72 1178.6 4.87867 1178.94 5.084L1178.26 6.414C1177.91 6.19933 1177.55 6.05467 1177.19 5.98C1176.83 5.896 1176.48 5.854 1176.12 5.854C1175.59 5.854 1175.19 5.93333 1174.93 6.092C1174.68 6.25067 1174.55 6.45133 1174.55 6.694C1174.55 6.918 1174.64 7.086 1174.81 7.198C1174.97 7.31 1175.19 7.39867 1175.46 7.464C1175.74 7.52933 1176.03 7.58533 1176.36 7.632C1176.7 7.66933 1177.03 7.73 1177.35 7.814C1177.68 7.898 1177.98 8.01467 1178.25 8.164C1178.53 8.304 1178.75 8.50467 1178.92 8.766C1179.09 9.02733 1179.17 9.368 1179.17 9.788C1179.17 10.2547 1179.03 10.6607 1178.75 11.006C1178.48 11.3513 1178.1 11.622 1177.59 11.818C1177.09 12.0047 1176.49 12.098 1175.79 12.098Z" fill="#757575"/>
<path d="M0.0476074 34L1180.05 33.9999" stroke="#E0E0E0" stroke-width="1.20466"/>
<path d="M12.2615 70.7617C12.2615 71.8432 11.6981 73.613 10.3646 73.613C9.031 73.613 8.4676 71.8432 8.4676 70.7617C8.4676 69.6801 9.031 67.9104 10.3646 67.9104C11.6981 67.9104 12.2615 69.6801 12.2615 70.7617ZM27.4527 68.1484C27.4527 69.7992 27.2873 71.5483 26.5482 73.0645C24.5892 77.0284 19.2033 76.9352 15.3473 76.9352C11.4293 76.9352 5.72295 77.0749 3.68644 73.0645C2.93179 71.5638 2.64233 69.7992 2.64233 68.1484C2.64233 65.9802 3.3608 63.9309 4.7874 62.2698C4.51862 61.4522 4.3894 60.5932 4.3894 59.7445C4.3894 58.6319 4.64267 58.0731 5.14405 57.064C7.48552 57.064 8.98448 57.5297 10.7677 58.9269C12.2667 58.5698 13.807 58.4094 15.3525 58.4094C16.7481 58.4094 18.154 58.5595 19.5082 58.8855C21.2656 57.5038 22.7646 57.064 25.0802 57.064C25.5868 58.0731 25.8349 58.6319 25.8349 59.7445C25.8349 60.5932 25.7005 61.4367 25.4369 62.2388C26.8583 63.9154 27.4527 65.9802 27.4527 68.1484ZM24.1291 70.7617C24.1291 68.4899 22.7491 66.4873 20.3301 66.4873C19.3531 66.4873 18.4176 66.6632 17.4355 66.7978C16.6654 66.9168 15.8952 66.9634 15.1044 66.9634C14.3187 66.9634 13.5486 66.9168 12.7732 66.7978C11.8067 66.6632 10.8608 66.4873 9.87869 66.4873C7.45968 66.4873 6.0796 68.4899 6.0796 70.7617C6.0796 75.3052 10.2353 76.0038 13.8535 76.0038H16.3449C19.9786 76.0038 24.1291 75.3103 24.1291 70.7617ZM19.8597 67.9104C18.5261 67.9104 17.9627 69.6801 17.9627 70.7617C17.9627 71.8432 18.5261 73.613 19.8597 73.613C21.1933 73.613 21.7567 71.8432 21.7567 70.7617C21.7567 69.6801 21.1933 67.9104 19.8597 67.9104Z" fill="#BABABA"/>
<path d="M68.7559 68.4868H76.6924V76.1817H73.4211L73.0308 72.8918C72.6591 74.069 71.9962 74.9426 71.042 75.5126C70.0879 76.0825 68.9232 76.3675 67.5477 76.3675C66.2962 76.3675 65.181 76.0887 64.2021 75.5311C63.2356 74.9735 62.4736 74.1743 61.916 73.1335C61.3707 72.0926 61.0981 70.8783 61.0981 69.4905C61.0981 67.2724 61.7611 65.5191 63.0869 64.2304C64.4128 62.9417 66.4759 62.2974 69.2763 62.2974C70.8748 62.2974 72.2812 62.5576 73.4955 63.078C74.7222 63.5985 75.7631 64.4039 76.6181 65.4943C76.0605 65.7793 74.97 66.3493 73.3468 67.2043L72.8821 67.4645C72.3989 66.9812 71.8351 66.6219 71.1907 66.3865C70.5464 66.1386 69.8649 66.0147 69.1462 66.0147C67.9566 66.0147 67.0707 66.3307 66.4883 66.9627C65.9059 67.5822 65.6147 68.3505 65.6147 69.2674C65.6147 70.2587 65.9245 71.0579 66.5441 71.6651C67.176 72.2723 68.1363 72.5758 69.425 72.5758C69.9826 72.5758 70.5216 72.4953 71.042 72.3342C71.5749 72.1731 72.0209 71.8943 72.3803 71.4978H68.7559V68.4868Z" fill="#BABABA"/>
<path d="M88.9968 61.5363C87.0514 61.4743 85.1618 61.4371 83.3279 61.4248V71.127H78.6812V61.4248C76.8349 61.4371 74.9515 61.4743 73.0308 61.5363V57.6331H88.9968V61.5363Z" fill="#BABABA"/>
<path fill-rule="evenodd" clip-rule="evenodd" d="M144.775 58.6845C145.873 58.9983 146.657 59.7828 146.971 60.881C147.599 62.9206 147.599 66.9997 147.599 66.9997C147.599 66.9997 147.599 71.0789 147.128 73.1185C146.814 74.2167 146.03 75.0011 144.932 75.3149C142.892 75.7856 135.048 75.7856 135.048 75.7856C135.048 75.7856 127.046 75.7856 125.163 75.3149C124.065 75.0011 123.281 74.2167 122.967 73.1185C122.496 71.0789 122.496 66.9997 122.496 66.9997C122.496 66.9997 122.496 62.9206 122.81 60.881C123.124 59.7828 123.908 58.9983 125.007 58.6845C127.046 58.2139 134.891 58.2139 134.891 58.2139C134.891 58.2139 142.892 58.2139 144.775 58.6845ZM132.537 63.9236C132.537 63.6165 132.869 63.424 133.136 63.5763L138.519 66.6524C138.788 66.806 138.788 67.1935 138.519 67.347L133.136 70.4231C132.869 70.5755 132.537 70.383 132.537 70.0758V63.9236Z" fill="#BABABA"/>
<path d="M938.8 71.036C938.016 71.036 937.3 70.848 936.652 70.472C936.012 70.096 935.504 69.584 935.128 68.936C934.76 68.288 934.576 67.576 934.576 66.8C934.576 66.024 934.76 65.312 935.128 64.664C935.504 64.016 936.016 63.504 936.664 63.128C937.312 62.752 938.032 62.564 938.824 62.564C939.616 62.564 940.332 62.748 940.972 63.116C941.62 63.484 942.128 63.992 942.496 64.64C942.864 65.28 943.048 65.992 943.048 66.776C943.048 67.56 942.86 68.28 942.484 68.936C942.108 69.584 941.596 70.096 940.948 70.472C940.3 70.848 939.584 71.036 938.8 71.036ZM938.8 70.376C939.464 70.376 940.064 70.216 940.6 69.896C941.144 69.576 941.572 69.144 941.884 68.6C942.196 68.048 942.352 67.44 942.352 66.776C942.352 66.112 942.2 65.512 941.896 64.976C941.592 64.432 941.172 64.004 940.636 63.692C940.1 63.38 939.496 63.224 938.824 63.224C938.152 63.224 937.544 63.384 937 63.704C936.456 64.016 936.028 64.444 935.716 64.988C935.412 65.532 935.26 66.136 935.26 66.8C935.26 67.464 935.412 68.068 935.716 68.612C936.028 69.156 936.452 69.588 936.988 69.908C937.532 70.22 938.136 70.376 938.8 70.376ZM938.932 69.248C938.444 69.248 938.008 69.144 937.624 68.936C937.24 68.728 936.94 68.44 936.724 68.072C936.508 67.696 936.4 67.272 936.4 66.8C936.4 66.328 936.508 65.908 936.724 65.54C936.94 65.164 937.24 64.872 937.624 64.664C938.008 64.456 938.444 64.352 938.932 64.352C939.38 64.352 939.776 64.448 940.12 64.64C940.472 64.824 940.744 65.076 940.936 65.396L940.06 65.972C939.812 65.572 939.432 65.372 938.92 65.372C938.528 65.372 938.2 65.504 937.936 65.768C937.68 66.024 937.552 66.368 937.552 66.8C937.552 67.232 937.68 67.58 937.936 67.844C938.2 68.1 938.528 68.228 938.92 68.228C939.432 68.228 939.812 68.028 940.06 67.628L940.936 68.18C940.744 68.516 940.472 68.78 940.12 68.972C939.776 69.156 939.38 69.248 938.932 69.248ZM950.07 69.68V71H943.878V69.956L947.214 66.788C947.59 66.428 947.842 66.116 947.97 65.852C948.106 65.58 948.174 65.312 948.174 65.048C948.174 64.656 948.042 64.356 947.778 64.148C947.514 63.94 947.126 63.836 946.614 63.836C945.758 63.836 945.102 64.128 944.646 64.712L943.554 63.872C943.882 63.432 944.322 63.092 944.874 62.852C945.434 62.604 946.058 62.48 946.746 62.48C947.658 62.48 948.386 62.696 948.93 63.128C949.474 63.56 949.746 64.148 949.746 64.892C949.746 65.348 949.65 65.776 949.458 66.176C949.266 66.576 948.898 67.032 948.354 67.544L946.11 69.68H950.07ZM954.439 71.12C953.767 71.12 953.167 70.952 952.639 70.616C952.111 70.272 951.695 69.776 951.391 69.128C951.087 68.472 950.935 67.696 950.935 66.8C950.935 65.904 951.087 65.132 951.391 64.484C951.695 63.828 952.111 63.332 952.639 62.996C953.167 62.652 953.767 62.48 954.439 62.48C955.111 62.48 955.711 62.652 956.239 62.996C956.775 63.332 957.195 63.828 957.499 64.484C957.803 65.132 957.955 65.904 957.955 66.8C957.955 67.696 957.803 68.472 957.499 69.128C957.195 69.776 956.775 70.272 956.239 70.616C955.711 70.952 955.111 71.12 954.439 71.12ZM954.439 69.764C955.039 69.764 955.511 69.516 955.855 69.02C956.207 68.524 956.383 67.784 956.383 66.8C956.383 65.816 956.207 65.076 955.855 64.58C955.511 64.084 955.039 63.836 954.439 63.836C953.847 63.836 953.375 64.084 953.023 64.58C952.679 65.076 952.507 65.816 952.507 66.8C952.507 67.784 952.679 68.524 953.023 69.02C953.375 69.516 953.847 69.764 954.439 69.764ZM965.035 69.68V71H958.843V69.956L962.179 66.788C962.555 66.428 962.807 66.116 962.935 65.852C963.071 65.58 963.139 65.312 963.139 65.048C963.139 64.656 963.007 64.356 962.743 64.148C962.479 63.94 962.091 63.836 961.579 63.836C960.723 63.836 960.067 64.128 959.611 64.712L958.519 63.872C958.847 63.432 959.287 63.092 959.839 62.852C960.399 62.604 961.023 62.48 961.711 62.48C962.623 62.48 963.351 62.696 963.895 63.128C964.439 63.56 964.711 64.148 964.711 64.892C964.711 65.348 964.615 65.776 964.423 66.176C964.231 66.576 963.863 67.032 963.319 67.544L961.075 69.68H965.035ZM968.839 62.6V71H967.279V63.908H965.503V62.6H968.839ZM980.158 66.704H981.634V70.052C981.202 70.396 980.698 70.66 980.122 70.844C979.546 71.028 978.954 71.12 978.346 71.12C977.49 71.12 976.718 70.936 976.03 70.568C975.342 70.192 974.802 69.676 974.41 69.02C974.018 68.364 973.822 67.624 973.822 66.8C973.822 65.976 974.018 65.236 974.41 64.58C974.802 63.924 975.342 63.412 976.03 63.044C976.726 62.668 977.506 62.48 978.37 62.48C979.074 62.48 979.714 62.596 980.29 62.828C980.866 63.06 981.35 63.4 981.742 63.848L980.758 64.808C980.118 64.168 979.346 63.848 978.442 63.848C977.85 63.848 977.322 63.972 976.858 64.22C976.402 64.468 976.042 64.816 975.778 65.264C975.522 65.712 975.394 66.224 975.394 66.8C975.394 67.36 975.522 67.864 975.778 68.312C976.042 68.76 976.402 69.112 976.858 69.368C977.322 69.624 977.846 69.752 978.43 69.752C979.086 69.752 979.662 69.608 980.158 69.32V66.704ZM983.547 62.096H985.047V71H983.547V62.096ZM989.896 71.084C989.248 71.084 988.664 70.944 988.144 70.664C987.624 70.384 987.216 69.996 986.92 69.5C986.632 68.996 986.488 68.428 986.488 67.796C986.488 67.164 986.632 66.6 986.92 66.104C987.216 65.608 987.624 65.22 988.144 64.94C988.664 64.66 989.248 64.52 989.896 64.52C990.552 64.52 991.14 64.66 991.66 64.94C992.18 65.22 992.584 65.608 992.872 66.104C993.168 66.6 993.316 67.164 993.316 67.796C993.316 68.428 993.168 68.996 992.872 69.5C992.584 69.996 992.18 70.384 991.66 70.664C991.14 70.944 990.552 71.084 989.896 71.084ZM989.896 69.8C990.448 69.8 990.904 69.616 991.264 69.248C991.624 68.88 991.804 68.396 991.804 67.796C991.804 67.196 991.624 66.712 991.264 66.344C990.904 65.976 990.448 65.792 989.896 65.792C989.344 65.792 988.888 65.976 988.528 66.344C988.176 66.712 988 67.196 988 67.796C988 68.396 988.176 68.88 988.528 69.248C988.888 69.616 989.344 69.8 989.896 69.8ZM998.302 64.52C998.926 64.52 999.482 64.656 999.97 64.928C1000.47 65.2 1000.85 65.584 1001.13 66.08C1001.41 66.576 1001.55 67.148 1001.55 67.796C1001.55 68.444 1001.41 69.02 1001.13 69.524C1000.85 70.02 1000.47 70.404 999.97 70.676C999.482 70.948 998.926 71.084 998.302 71.084C997.862 71.084 997.458 71.008 997.09 70.856C996.73 70.704 996.426 70.476 996.178 70.172V71H994.75V62.096H996.25V65.372C996.506 65.092 996.806 64.88 997.15 64.736C997.502 64.592 997.886 64.52 998.302 64.52ZM998.134 69.8C998.686 69.8 999.138 69.616 999.49 69.248C999.85 68.88 1000.03 68.396 1000.03 67.796C1000.03 67.196 999.85 66.712 999.49 66.344C999.138 65.976 998.686 65.792 998.134 65.792C997.774 65.792 997.45 65.876 997.162 66.044C996.874 66.204 996.646 66.436 996.478 66.74C996.31 67.044 996.226 67.396 996.226 67.796C996.226 68.196 996.31 68.548 996.478 68.852C996.646 69.156 996.874 69.392 997.162 69.56C997.45 69.72 997.774 69.8 998.134 69.8ZM1005.34 64.52C1006.29 64.52 1007.01 64.748 1007.5 65.204C1008.01 65.652 1008.26 66.332 1008.26 67.244V71H1006.84V70.22C1006.66 70.5 1006.39 70.716 1006.05 70.868C1005.71 71.012 1005.31 71.084 1004.83 71.084C1004.35 71.084 1003.93 71.004 1003.57 70.844C1003.21 70.676 1002.93 70.448 1002.73 70.16C1002.53 69.864 1002.44 69.532 1002.44 69.164C1002.44 68.588 1002.65 68.128 1003.07 67.784C1003.51 67.432 1004.18 67.256 1005.1 67.256H1006.76V67.16C1006.76 66.712 1006.62 66.368 1006.35 66.128C1006.09 65.888 1005.69 65.768 1005.16 65.768C1004.8 65.768 1004.45 65.824 1004.09 65.936C1003.75 66.048 1003.46 66.204 1003.22 66.404L1002.63 65.312C1002.97 65.056 1003.37 64.86 1003.84 64.724C1004.31 64.588 1004.81 64.52 1005.34 64.52ZM1005.14 69.992C1005.51 69.992 1005.85 69.908 1006.13 69.74C1006.43 69.564 1006.64 69.316 1006.76 68.996V68.252H1005.21C1004.35 68.252 1003.91 68.536 1003.91 69.104C1003.91 69.376 1004.02 69.592 1004.24 69.752C1004.45 69.912 1004.75 69.992 1005.14 69.992ZM1010.18 62.096H1011.68V71H1010.18V62.096ZM1015.5 63.92H1012.72V62.6H1019.84V63.92H1017.06V71H1015.5V63.92ZM1022.98 64.52C1023.92 64.52 1024.64 64.748 1025.14 65.204C1025.64 65.652 1025.9 66.332 1025.9 67.244V71H1024.48V70.22C1024.3 70.5 1024.03 70.716 1023.69 70.868C1023.35 71.012 1022.94 71.084 1022.46 71.084C1021.98 71.084 1021.56 71.004 1021.2 70.844C1020.84 70.676 1020.56 70.448 1020.36 70.16C1020.17 69.864 1020.08 69.532 1020.08 69.164C1020.08 68.588 1020.29 68.128 1020.71 67.784C1021.14 67.432 1021.82 67.256 1022.74 67.256H1024.4V67.16C1024.4 66.712 1024.26 66.368 1023.99 66.128C1023.72 65.888 1023.33 65.768 1022.8 65.768C1022.44 65.768 1022.08 65.824 1021.73 65.936C1021.39 66.048 1021.1 66.204 1020.86 66.404L1020.27 65.312C1020.6 65.056 1021.01 64.86 1021.48 64.724C1021.95 64.588 1022.45 64.52 1022.98 64.52ZM1022.78 69.992C1023.15 69.992 1023.48 69.908 1023.77 69.74C1024.07 69.564 1024.28 69.316 1024.4 68.996V68.252H1022.85C1021.98 68.252 1021.55 68.536 1021.55 69.104C1021.55 69.376 1021.66 69.592 1021.88 69.752C1022.09 69.912 1022.39 69.992 1022.78 69.992ZM1027.82 62.096H1029.32V71H1027.82V62.096ZM1033.91 68.252L1032.79 69.308V71H1031.29V62.096H1032.79V67.472L1035.9 64.592H1037.7L1035.02 67.28L1037.95 71H1036.13L1033.91 68.252ZM1039.4 71.084C1039.13 71.084 1038.89 70.992 1038.7 70.808C1038.51 70.616 1038.41 70.376 1038.41 70.088C1038.41 69.792 1038.51 69.552 1038.69 69.368C1038.88 69.184 1039.12 69.092 1039.4 69.092C1039.68 69.092 1039.91 69.184 1040.09 69.368C1040.29 69.552 1040.38 69.792 1040.38 70.088C1040.38 70.376 1040.29 70.616 1040.09 70.808C1039.9 70.992 1039.67 71.084 1039.4 71.084ZM1048.76 62.6C1049.49 62.6 1050.12 62.72 1050.66 62.96C1051.2 63.2 1051.62 63.544 1051.91 63.992C1052.2 64.44 1052.34 64.972 1052.34 65.588C1052.34 66.196 1052.2 66.728 1051.91 67.184C1051.62 67.632 1051.2 67.976 1050.66 68.216C1050.12 68.456 1049.49 68.576 1048.76 68.576H1046.87V71H1045.31V62.6H1048.76ZM1048.69 67.256C1049.37 67.256 1049.89 67.112 1050.24 66.824C1050.59 66.536 1050.77 66.124 1050.77 65.588C1050.77 65.052 1050.59 64.64 1050.24 64.352C1049.89 64.064 1049.37 63.92 1048.69 63.92H1046.87V67.256H1048.69ZM1055.12 65.528C1055.56 64.856 1056.32 64.52 1057.4 64.52V65.948C1057.28 65.924 1057.16 65.912 1057.06 65.912C1056.47 65.912 1056.02 66.084 1055.69 66.428C1055.36 66.764 1055.2 67.252 1055.2 67.892V71H1053.7V64.592H1055.12V65.528ZM1061.5 71.084C1060.85 71.084 1060.27 70.944 1059.75 70.664C1059.23 70.384 1058.82 69.996 1058.52 69.5C1058.23 68.996 1058.09 68.428 1058.09 67.796C1058.09 67.164 1058.23 66.6 1058.52 66.104C1058.82 65.608 1059.23 65.22 1059.75 64.94C1060.27 64.66 1060.85 64.52 1061.5 64.52C1062.15 64.52 1062.74 64.66 1063.26 64.94C1063.78 65.22 1064.19 65.608 1064.47 66.104C1064.77 66.6 1064.92 67.164 1064.92 67.796C1064.92 68.428 1064.77 68.996 1064.47 69.5C1064.19 69.996 1063.78 70.384 1063.26 70.664C1062.74 70.944 1062.15 71.084 1061.5 71.084ZM1061.5 69.8C1062.05 69.8 1062.51 69.616 1062.87 69.248C1063.23 68.88 1063.41 68.396 1063.41 67.796C1063.41 67.196 1063.23 66.712 1062.87 66.344C1062.51 65.976 1062.05 65.792 1061.5 65.792C1060.95 65.792 1060.49 65.976 1060.13 66.344C1059.78 66.712 1059.6 67.196 1059.6 67.796C1059.6 68.396 1059.78 68.88 1060.13 69.248C1060.49 69.616 1060.95 69.8 1061.5 69.8ZM1065.69 73.412C1065.06 73.412 1064.58 73.288 1064.25 73.04L1064.68 71.924C1064.91 72.092 1065.2 72.176 1065.56 72.176C1065.84 72.176 1066.05 72.088 1066.2 71.912C1066.35 71.744 1066.42 71.492 1066.42 71.156V64.592H1067.92V71.12C1067.92 71.832 1067.73 72.392 1067.34 72.8C1066.94 73.208 1066.4 73.412 1065.69 73.412ZM1067.17 63.536C1066.9 63.536 1066.67 63.452 1066.48 63.284C1066.3 63.108 1066.21 62.892 1066.21 62.636C1066.21 62.38 1066.3 62.168 1066.48 62C1066.67 61.824 1066.9 61.736 1067.17 61.736C1067.44 61.736 1067.67 61.82 1067.85 61.988C1068.04 62.148 1068.13 62.352 1068.13 62.6C1068.13 62.864 1068.04 63.088 1067.85 63.272C1067.68 63.448 1067.45 63.536 1067.17 63.536ZM1075.91 67.832C1075.91 67.936 1075.91 68.084 1075.89 68.276H1070.86C1070.95 68.748 1071.18 69.124 1071.55 69.404C1071.92 69.676 1072.39 69.812 1072.94 69.812C1073.64 69.812 1074.22 69.58 1074.68 69.116L1075.48 70.04C1075.19 70.384 1074.83 70.644 1074.39 70.82C1073.95 70.996 1073.45 71.084 1072.9 71.084C1072.2 71.084 1071.58 70.944 1071.04 70.664C1070.51 70.384 1070.09 69.996 1069.79 69.5C1069.51 68.996 1069.36 68.428 1069.36 67.796C1069.36 67.172 1069.5 66.612 1069.78 66.116C1070.07 65.612 1070.47 65.22 1070.97 64.94C1071.47 64.66 1072.04 64.52 1072.67 64.52C1073.3 64.52 1073.85 64.66 1074.34 64.94C1074.84 65.212 1075.22 65.6 1075.49 66.104C1075.77 66.6 1075.91 67.176 1075.91 67.832ZM1072.67 65.72C1072.19 65.72 1071.79 65.864 1071.45 66.152C1071.12 66.432 1070.92 66.808 1070.85 67.28H1074.49C1074.42 66.816 1074.23 66.44 1073.9 66.152C1073.57 65.864 1073.16 65.72 1072.67 65.72ZM1080.3 71.084C1079.63 71.084 1079.04 70.944 1078.51 70.664C1077.98 70.384 1077.57 69.996 1077.27 69.5C1076.98 68.996 1076.83 68.428 1076.83 67.796C1076.83 67.164 1076.98 66.6 1077.27 66.104C1077.57 65.608 1077.98 65.22 1078.5 64.94C1079.02 64.66 1079.62 64.52 1080.3 64.52C1080.93 64.52 1081.48 64.648 1081.95 64.904C1082.43 65.16 1082.79 65.528 1083.03 66.008L1081.88 66.68C1081.7 66.384 1081.46 66.164 1081.18 66.02C1080.91 65.868 1080.61 65.792 1080.28 65.792C1079.72 65.792 1079.26 65.976 1078.89 66.344C1078.52 66.704 1078.34 67.188 1078.34 67.796C1078.34 68.404 1078.52 68.892 1078.88 69.26C1079.25 69.62 1079.72 69.8 1080.28 69.8C1080.61 69.8 1080.91 69.728 1081.18 69.584C1081.46 69.432 1081.7 69.208 1081.88 68.912L1083.03 69.584C1082.78 70.064 1082.42 70.436 1081.94 70.7C1081.47 70.956 1080.92 71.084 1080.3 71.084ZM1088.26 70.652C1088.09 70.796 1087.87 70.904 1087.61 70.976C1087.37 71.048 1087.1 71.084 1086.82 71.084C1086.12 71.084 1085.57 70.9 1085.19 70.532C1084.81 70.164 1084.61 69.628 1084.61 68.924V65.84H1083.56V64.64H1084.61V63.176H1086.11V64.64H1087.83V65.84H1086.11V68.888C1086.11 69.2 1086.19 69.44 1086.34 69.608C1086.49 69.768 1086.71 69.848 1087 69.848C1087.34 69.848 1087.62 69.76 1087.84 69.584L1088.26 70.652ZM1095.42 63.224C1094.78 63.224 1094.47 63.568 1094.47 64.256V64.64H1096.23V65.84H1094.52V71H1093.02V65.84H1091.96V64.64H1093.02V64.232C1093.02 63.544 1093.22 63.004 1093.62 62.612C1094.02 62.212 1094.58 62.012 1095.31 62.012C1095.88 62.012 1096.34 62.128 1096.66 62.36L1096.24 63.488C1095.99 63.312 1095.71 63.224 1095.42 63.224ZM1100.03 71.084C1099.38 71.084 1098.8 70.944 1098.28 70.664C1097.76 70.384 1097.35 69.996 1097.05 69.5C1096.76 68.996 1096.62 68.428 1096.62 67.796C1096.62 67.164 1096.76 66.6 1097.05 66.104C1097.35 65.608 1097.76 65.22 1098.28 64.94C1098.8 64.66 1099.38 64.52 1100.03 64.52C1100.68 64.52 1101.27 64.66 1101.79 64.94C1102.31 65.22 1102.72 65.608 1103 66.104C1103.3 66.6 1103.45 67.164 1103.45 67.796C1103.45 68.428 1103.3 68.996 1103 69.5C1102.72 69.996 1102.31 70.384 1101.79 70.664C1101.27 70.944 1100.68 71.084 1100.03 71.084ZM1100.03 69.8C1100.58 69.8 1101.04 69.616 1101.4 69.248C1101.76 68.88 1101.94 68.396 1101.94 67.796C1101.94 67.196 1101.76 66.712 1101.4 66.344C1101.04 65.976 1100.58 65.792 1100.03 65.792C1099.48 65.792 1099.02 65.976 1098.66 66.344C1098.31 66.712 1098.13 67.196 1098.13 67.796C1098.13 68.396 1098.31 68.88 1098.66 69.248C1099.02 69.616 1099.48 69.8 1100.03 69.8ZM1106.31 65.528C1106.74 64.856 1107.5 64.52 1108.59 64.52V65.948C1108.46 65.924 1108.35 65.912 1108.24 65.912C1107.66 65.912 1107.2 66.084 1106.88 66.428C1106.55 66.764 1106.38 67.252 1106.38 67.892V71H1104.88V64.592H1106.31V65.528ZM1119.12 66.704H1120.59V70.052C1120.16 70.396 1119.66 70.66 1119.08 70.844C1118.51 71.028 1117.91 71.12 1117.31 71.12C1116.45 71.12 1115.68 70.936 1114.99 70.568C1114.3 70.192 1113.76 69.676 1113.37 69.02C1112.98 68.364 1112.78 67.624 1112.78 66.8C1112.78 65.976 1112.98 65.236 1113.37 64.58C1113.76 63.924 1114.3 63.412 1114.99 63.044C1115.69 62.668 1116.47 62.48 1117.33 62.48C1118.03 62.48 1118.67 62.596 1119.25 62.828C1119.83 63.06 1120.31 63.4 1120.7 63.848L1119.72 64.808C1119.08 64.168 1118.31 63.848 1117.4 63.848C1116.81 63.848 1116.28 63.972 1115.82 64.22C1115.36 64.468 1115 64.816 1114.74 65.264C1114.48 65.712 1114.35 66.224 1114.35 66.8C1114.35 67.36 1114.48 67.864 1114.74 68.312C1115 68.76 1115.36 69.112 1115.82 69.368C1116.28 69.624 1116.81 69.752 1117.39 69.752C1118.05 69.752 1118.62 69.608 1119.12 69.32V66.704ZM1122.51 62.096H1124.01V71H1122.51V62.096ZM1128.86 71.084C1128.21 71.084 1127.62 70.944 1127.1 70.664C1126.58 70.384 1126.18 69.996 1125.88 69.5C1125.59 68.996 1125.45 68.428 1125.45 67.796C1125.45 67.164 1125.59 66.6 1125.88 66.104C1126.18 65.608 1126.58 65.22 1127.1 64.94C1127.62 64.66 1128.21 64.52 1128.86 64.52C1129.51 64.52 1130.1 64.66 1130.62 64.94C1131.14 65.22 1131.54 65.608 1131.83 66.104C1132.13 66.6 1132.28 67.164 1132.28 67.796C1132.28 68.428 1132.13 68.996 1131.83 69.5C1131.54 69.996 1131.14 70.384 1130.62 70.664C1130.1 70.944 1129.51 71.084 1128.86 71.084ZM1128.86 69.8C1129.41 69.8 1129.86 69.616 1130.22 69.248C1130.58 68.88 1130.76 68.396 1130.76 67.796C1130.76 67.196 1130.58 66.712 1130.22 66.344C1129.86 65.976 1129.41 65.792 1128.86 65.792C1128.3 65.792 1127.85 65.976 1127.49 66.344C1127.14 66.712 1126.96 67.196 1126.96 67.796C1126.96 68.396 1127.14 68.88 1127.49 69.248C1127.85 69.616 1128.3 69.8 1128.86 69.8ZM1137.26 64.52C1137.89 64.52 1138.44 64.656 1138.93 64.928C1139.43 65.2 1139.82 65.584 1140.1 66.08C1140.38 66.576 1140.52 67.148 1140.52 67.796C1140.52 68.444 1140.38 69.02 1140.1 69.524C1139.82 70.02 1139.43 70.404 1138.93 70.676C1138.44 70.948 1137.89 71.084 1137.26 71.084C1136.82 71.084 1136.42 71.008 1136.05 70.856C1135.69 70.704 1135.39 70.476 1135.14 70.172V71H1133.71V62.096H1135.21V65.372C1135.47 65.092 1135.77 64.88 1136.11 64.736C1136.46 64.592 1136.85 64.52 1137.26 64.52ZM1137.1 69.8C1137.65 69.8 1138.1 69.616 1138.45 69.248C1138.81 68.88 1138.99 68.396 1138.99 67.796C1138.99 67.196 1138.81 66.712 1138.45 66.344C1138.1 65.976 1137.65 65.792 1137.1 65.792C1136.74 65.792 1136.41 65.876 1136.12 66.044C1135.84 66.204 1135.61 66.436 1135.44 66.74C1135.27 67.044 1135.19 67.396 1135.19 67.796C1135.19 68.196 1135.27 68.548 1135.44 68.852C1135.61 69.156 1135.84 69.392 1136.12 69.56C1136.41 69.72 1136.74 69.8 1137.1 69.8ZM1144.3 64.52C1145.25 64.52 1145.97 64.748 1146.46 65.204C1146.97 65.652 1147.22 66.332 1147.22 67.244V71H1145.8V70.22C1145.62 70.5 1145.36 70.716 1145.01 70.868C1144.68 71.012 1144.27 71.084 1143.79 71.084C1143.31 71.084 1142.89 71.004 1142.53 70.844C1142.17 70.676 1141.89 70.448 1141.69 70.16C1141.5 69.864 1141.4 69.532 1141.4 69.164C1141.4 68.588 1141.61 68.128 1142.04 67.784C1142.47 67.432 1143.14 67.256 1144.06 67.256H1145.72V67.16C1145.72 66.712 1145.58 66.368 1145.31 66.128C1145.05 65.888 1144.65 65.768 1144.12 65.768C1143.76 65.768 1143.41 65.824 1143.06 65.936C1142.71 66.048 1142.42 66.204 1142.18 66.404L1141.59 65.312C1141.93 65.056 1142.33 64.86 1142.8 64.724C1143.28 64.588 1143.78 64.52 1144.3 64.52ZM1144.1 69.992C1144.48 69.992 1144.81 69.908 1145.1 69.74C1145.39 69.564 1145.6 69.316 1145.72 68.996V68.252H1144.17C1143.31 68.252 1142.88 68.536 1142.88 69.104C1142.88 69.376 1142.98 69.592 1143.2 69.752C1143.42 69.912 1143.72 69.992 1144.1 69.992ZM1149.14 62.096H1150.64V71H1149.14V62.096ZM1154.46 63.92H1151.68V62.6H1158.81V63.92H1156.02V71H1154.46V63.92ZM1161.94 64.52C1162.88 64.52 1163.6 64.748 1164.1 65.204C1164.6 65.652 1164.86 66.332 1164.86 67.244V71H1163.44V70.22C1163.26 70.5 1162.99 70.716 1162.65 70.868C1162.31 71.012 1161.9 71.084 1161.42 71.084C1160.94 71.084 1160.52 71.004 1160.16 70.844C1159.8 70.676 1159.52 70.448 1159.32 70.16C1159.13 69.864 1159.04 69.532 1159.04 69.164C1159.04 68.588 1159.25 68.128 1159.67 67.784C1160.1 67.432 1160.78 67.256 1161.7 67.256H1163.36V67.16C1163.36 66.712 1163.22 66.368 1162.95 66.128C1162.68 65.888 1162.29 65.768 1161.76 65.768C1161.4 65.768 1161.04 65.824 1160.69 65.936C1160.35 66.048 1160.06 66.204 1159.82 66.404L1159.23 65.312C1159.56 65.056 1159.97 64.86 1160.44 64.724C1160.91 64.588 1161.41 64.52 1161.94 64.52ZM1161.74 69.992C1162.11 69.992 1162.44 69.908 1162.73 69.74C1163.03 69.564 1163.24 69.316 1163.36 68.996V68.252H1161.81C1160.94 68.252 1160.51 68.536 1160.51 69.104C1160.51 69.376 1160.62 69.592 1160.84 69.752C1161.05 69.912 1161.35 69.992 1161.74 69.992ZM1166.78 62.096H1168.28V71H1166.78V62.096ZM1172.87 68.252L1171.75 69.308V71H1170.25V62.096H1171.75V67.472L1174.86 64.592H1176.66L1173.98 67.28L1176.91 71H1175.09L1172.87 68.252ZM1178.36 71.084C1178.09 71.084 1177.86 70.992 1177.66 70.808C1177.47 70.616 1177.38 70.376 1177.38 70.088C1177.38 69.792 1177.47 69.552 1177.65 69.368C1177.84 69.184 1178.08 69.092 1178.36 69.092C1178.64 69.092 1178.87 69.184 1179.06 69.368C1179.25 69.552 1179.34 69.792 1179.34 70.088C1179.34 70.376 1179.25 70.616 1179.06 70.808C1178.86 70.992 1178.63 71.084 1178.36 71.084Z" fill="#757575"/>
<path d="M1112.25 72.2H1176.9V72.8H1112.25V72.2Z" fill="#757575"/>
</svg>
