<svg width="541" height="22" viewBox="0 0 541 22" fill="none" xmlns="http://www.w3.org/2000/svg">
<path d="M9.47675 11.8636H18.3844V20.5H14.7128L14.2748 16.8076C13.8575 18.1288 13.1135 19.1093 12.0426 19.749C10.9718 20.3887 9.66449 20.7086 8.12079 20.7086C6.71615 20.7086 5.46449 20.3957 4.36582 19.7699C3.28105 19.144 2.42575 18.247 1.79993 17.0788C1.188 15.9106 0.882045 14.5477 0.882045 12.9901C0.882045 10.5007 1.62608 8.53278 3.11416 7.08642C4.60224 5.64007 6.91781 4.91689 10.0609 4.91689C11.8549 4.91689 13.4334 5.20894 14.7963 5.79305C16.1731 6.37715 17.3413 7.28113 18.3009 8.50497C17.6751 8.82483 16.4512 9.46457 14.6294 10.4242L14.1079 10.7162C13.5655 10.1738 12.9327 9.77053 12.2095 9.50629C11.4863 9.22815 10.7214 9.08907 9.91483 9.08907C8.57973 9.08907 7.58536 9.44371 6.93171 10.153C6.27807 10.8483 5.95125 11.7106 5.95125 12.7397C5.95125 13.8523 6.29893 14.7493 6.9943 15.4308C7.70357 16.1123 8.78138 16.453 10.2277 16.453C10.8536 16.453 11.4585 16.3626 12.0426 16.1818C12.6407 16.001 13.1413 15.6881 13.5446 15.243H9.47675V11.8636ZM24.5372 12.1556C24.5233 12.9901 24.5163 14.2695 24.5163 15.994C24.5163 18.0662 24.5302 19.5682 24.5581 20.5H19.6349L19.6557 18.1427C19.6836 15.556 19.6975 13.5603 19.6975 12.1556C19.6975 10.8205 19.6836 8.92914 19.6557 6.48146L19.6349 4.22848H24.5581C24.5302 6.20331 24.5163 7.81656 24.5163 9.06821C24.5163 10.4589 24.5233 11.4881 24.5372 12.1556ZM32.5354 20.7086C30.1573 20.7086 28.4049 20.1662 27.2784 19.0815C26.1659 17.9828 25.6096 16.5434 25.6096 14.7632C25.6096 13.0248 26.1659 11.6132 27.2784 10.5285C28.4049 9.44371 30.1573 8.90132 32.5354 8.90132C34.1347 8.90132 35.4698 9.16556 36.5407 9.69404C37.6255 10.2086 38.4251 10.9109 38.9397 11.801C39.4543 12.6772 39.7116 13.6646 39.7116 14.7632C39.7116 16.5573 39.1135 17.9967 37.9175 19.0815C36.7354 20.1662 34.9414 20.7086 32.5354 20.7086ZM32.6188 17.1623C33.5228 17.1623 34.1973 16.9467 34.6424 16.5156C35.0874 16.0844 35.3099 15.5073 35.3099 14.7841C35.3099 14.1026 35.0874 13.5464 34.6424 13.1152C34.1973 12.6702 33.5228 12.4477 32.6188 12.4477C31.7149 12.4477 31.0543 12.6632 30.6371 13.0944C30.2198 13.5255 30.0112 14.0887 30.0112 14.7841C30.0112 15.5073 30.2198 16.0844 30.6371 16.5156C31.0543 16.9467 31.7149 17.1623 32.6188 17.1623ZM49.8151 8.90132C50.7469 8.90132 51.5744 9.18642 52.2975 9.75662C53.0346 10.3129 53.6048 11.057 54.0081 11.9887C54.4115 12.9066 54.6131 13.8871 54.6131 14.9301C54.6131 15.9871 54.4115 16.9606 54.0081 17.8507C53.6048 18.7268 53.0416 19.4222 52.3184 19.9368C51.5952 20.4513 50.7816 20.7086 49.8777 20.7086C48.8207 20.7086 47.9028 20.4861 47.124 20.0411C46.3452 19.5821 45.7611 18.8659 45.3717 17.8924L44.7667 20.5H40.7615C40.8449 17.8854 40.8866 15.1805 40.8866 12.3851C40.8866 9.56192 40.8449 6.85695 40.7615 4.2702H45.476L45.4134 6.83609C45.3439 8.64404 45.3091 10.2573 45.3091 11.6758C45.6846 10.7301 46.2548 10.0348 47.0197 9.58974C47.7985 9.13079 48.7303 8.90132 49.8151 8.90132ZM47.6873 17.204C48.3548 17.204 48.8833 16.9815 49.2727 16.5364C49.6621 16.0914 49.8568 15.5142 49.8568 14.805C49.8568 14.1652 49.6413 13.6507 49.2101 13.2613C48.7929 12.8579 48.2714 12.6563 47.6456 12.6563C47.3257 12.6563 46.9919 12.7328 46.6442 12.8858C46.2965 13.0248 45.9975 13.2613 45.7472 13.595C45.4969 13.9149 45.3717 14.3182 45.3717 14.805C45.3717 15.6672 45.5664 16.2861 45.9558 16.6616C46.3452 17.0232 46.9224 17.204 47.6873 17.204ZM69.2396 17.0371C69.2396 17.5099 69.2952 17.8437 69.4064 18.0384C69.5177 18.2331 69.7402 18.3722 70.074 18.4556L69.9905 20.4166C69.5455 20.4861 69.1561 20.5348 68.8223 20.5626C68.5025 20.5904 68.0713 20.6043 67.529 20.6043C66.3329 20.6043 65.5402 20.3401 65.1508 19.8116C64.7614 19.2692 64.5667 18.5808 64.5667 17.7464V17.2248C64.1634 18.3652 63.5723 19.2136 62.7935 19.7699C62.0286 20.3262 61.0482 20.6043 59.8521 20.6043C58.4614 20.6043 57.4114 20.3262 56.7021 19.7699C56.0068 19.2136 55.6591 18.3861 55.6591 17.2874C55.6591 16.3834 55.9581 15.6742 56.5561 15.1596C57.1541 14.645 58.079 14.2904 59.3306 14.0957C58.2737 13.3447 57.2167 12.6911 56.1598 12.1348C56.9942 11.0778 57.9468 10.2781 59.0177 9.73576C60.0886 9.17947 61.3889 8.90132 62.9187 8.90132C65.0604 8.90132 66.6458 9.36722 67.675 10.299C68.718 11.2169 69.2396 12.6354 69.2396 14.5546V17.0371ZM63.3568 12.5728C62.6475 12.5728 62.0217 12.6911 61.4793 12.9275C60.9369 13.1639 60.4501 13.5185 60.019 13.9914C60.8535 13.894 61.8965 13.8454 63.1482 13.8454C63.6627 13.8454 64.0243 13.7828 64.2329 13.6576C64.4415 13.5325 64.5458 13.3725 64.5458 13.1778C64.5458 13.0109 64.4415 12.8719 64.2329 12.7606C64.0243 12.6354 63.7323 12.5728 63.3568 12.5728ZM61.1664 17.204C61.9452 17.204 62.6475 17.0579 63.2733 16.7659C63.8992 16.4599 64.3303 16.0636 64.5667 15.5768V15.0344C64.2329 15.2013 63.8644 15.3334 63.4611 15.4308C63.0578 15.5142 62.571 15.5977 62.0008 15.6811L61.2498 15.8063C60.471 15.9593 60.0816 16.2235 60.0816 16.599C60.0816 17.0023 60.4432 17.204 61.1664 17.204ZM75.8151 12.1556C75.8012 12.9901 75.7943 14.2695 75.7943 15.994C75.7943 18.0662 75.8082 19.5682 75.836 20.5H70.9128L70.9337 18.1427C70.9615 15.556 70.9754 13.5603 70.9754 12.1556C70.9754 10.8205 70.9615 8.92914 70.9337 6.48146L70.9128 4.22848H75.836C75.8082 6.20331 75.7943 7.81656 75.7943 9.06821C75.7943 10.4589 75.8012 11.4881 75.8151 12.1556ZM95.0157 9.73576C92.8322 9.66623 90.7114 9.6245 88.6531 9.6106V20.5H83.4379V9.6106C81.3657 9.6245 79.2518 9.66623 77.0961 9.73576V5.35497H95.0157V9.73576ZM107.143 17.0371C107.143 17.5099 107.199 17.8437 107.31 18.0384C107.421 18.2331 107.644 18.3722 107.977 18.4556L107.894 20.4166C107.449 20.4861 107.059 20.5348 106.726 20.5626C106.406 20.5904 105.975 20.6043 105.432 20.6043C104.236 20.6043 103.444 20.3401 103.054 19.8116C102.665 19.2692 102.47 18.5808 102.47 17.7464V17.2248C102.067 18.3652 101.476 19.2136 100.697 19.7699C99.9319 20.3262 98.9515 20.6043 97.7555 20.6043C96.3647 20.6043 95.3147 20.3262 94.6055 19.7699C93.9101 19.2136 93.5624 18.3861 93.5624 17.2874C93.5624 16.3834 93.8614 15.6742 94.4594 15.1596C95.0574 14.645 95.9823 14.2904 97.2339 14.0957C96.177 13.3447 95.12 12.6911 94.0631 12.1348C94.8975 11.0778 95.8502 10.2781 96.921 9.73576C97.9919 9.17947 99.2922 8.90132 100.822 8.90132C102.964 8.90132 104.549 9.36722 105.578 10.299C106.621 11.2169 107.143 12.6354 107.143 14.5546V17.0371ZM101.26 12.5728C100.551 12.5728 99.925 12.6911 99.3826 12.9275C98.8402 13.1639 98.3535 13.5185 97.9223 13.9914C98.7568 13.894 99.7998 13.8454 101.051 13.8454C101.566 13.8454 101.928 13.7828 102.136 13.6576C102.345 13.5325 102.449 13.3725 102.449 13.1778C102.449 13.0109 102.345 12.8719 102.136 12.7606C101.928 12.6354 101.636 12.5728 101.26 12.5728ZM99.0697 17.204C99.8485 17.204 100.551 17.0579 101.177 16.7659C101.802 16.4599 102.234 16.0636 102.47 15.5768V15.0344C102.136 15.2013 101.768 15.3334 101.364 15.4308C100.961 15.5142 100.474 15.5977 99.9041 15.6811L99.1531 15.8063C98.3743 15.9593 97.9849 16.2235 97.9849 16.599C97.9849 17.0023 98.3465 17.204 99.0697 17.204ZM113.718 12.1556C113.705 12.9901 113.698 14.2695 113.698 15.994C113.698 18.0662 113.712 19.5682 113.739 20.5H108.816L108.837 18.1427C108.865 15.556 108.879 13.5603 108.879 12.1556C108.879 10.8205 108.865 8.92914 108.837 6.48146L108.816 4.22848H113.739C113.712 6.20331 113.698 7.81656 113.698 9.06821C113.698 10.4589 113.705 11.4881 113.718 12.1556ZM129.727 9.08907L124.554 13.8036C126.32 16.307 127.968 18.5391 129.498 20.5H123.97L122.906 18.7894C122.21 17.6351 121.751 16.8841 121.529 16.5364L119.797 18.1219V20.5H114.999C115.111 17.8576 115.166 15.1805 115.166 12.4685C115.166 9.74272 115.111 7.00993 114.999 4.2702H119.797V13.1152C121.146 11.7384 122.419 10.3964 123.615 9.08907H129.727Z" fill="black"/>
<path d="M160.048 2.56738V19.4326" stroke="#E0E0E0" stroke-width="1.20466"/>
<path d="M201.504 5.8V17H199.424V12.2H193.632V17H191.552V5.8H193.632V10.424H199.424V5.8H201.504ZM207.513 17.112C206.649 17.112 205.87 16.9253 205.177 16.552C204.483 16.1787 203.939 15.6613 203.545 15C203.161 14.328 202.969 13.5707 202.969 12.728C202.969 11.8853 203.161 11.1333 203.545 10.472C203.939 9.81067 204.483 9.29333 205.177 8.92C205.87 8.54667 206.649 8.36 207.513 8.36C208.387 8.36 209.171 8.54667 209.865 8.92C210.558 9.29333 211.097 9.81067 211.481 10.472C211.875 11.1333 212.073 11.8853 212.073 12.728C212.073 13.5707 211.875 14.328 211.481 15C211.097 15.6613 210.558 16.1787 209.865 16.552C209.171 16.9253 208.387 17.112 207.513 17.112ZM207.513 15.4C208.249 15.4 208.857 15.1547 209.337 14.664C209.817 14.1733 210.057 13.528 210.057 12.728C210.057 11.928 209.817 11.2827 209.337 10.792C208.857 10.3013 208.249 10.056 207.513 10.056C206.777 10.056 206.169 10.3013 205.689 10.792C205.219 11.2827 204.985 11.928 204.985 12.728C204.985 13.528 205.219 14.1733 205.689 14.664C206.169 15.1547 206.777 15.4 207.513 15.4ZM224.129 8.36C225.207 8.36 226.06 8.67467 226.689 9.304C227.319 9.92267 227.633 10.856 227.633 12.104V17H225.633V12.36C225.633 11.6133 225.468 11.0533 225.137 10.68C224.807 10.296 224.332 10.104 223.713 10.104C223.041 10.104 222.503 10.328 222.097 10.776C221.692 11.2133 221.489 11.8427 221.489 12.664V17H219.489V12.36C219.489 11.6133 219.324 11.0533 218.993 10.68C218.663 10.296 218.188 10.104 217.569 10.104C216.887 10.104 216.343 10.3227 215.937 10.76C215.543 11.1973 215.345 11.832 215.345 12.664V17H213.345V8.456H215.249V9.544C215.569 9.16 215.969 8.86667 216.449 8.664C216.929 8.46133 217.463 8.36 218.049 8.36C218.689 8.36 219.255 8.48267 219.745 8.728C220.247 8.96267 220.641 9.31467 220.929 9.784C221.281 9.336 221.735 8.98933 222.289 8.744C222.844 8.488 223.457 8.36 224.129 8.36ZM237.659 12.776C237.659 12.9147 237.648 13.112 237.627 13.368H230.923C231.04 13.9973 231.344 14.4987 231.835 14.872C232.336 15.2347 232.955 15.416 233.691 15.416C234.63 15.416 235.403 15.1067 236.011 14.488L237.083 15.72C236.699 16.1787 236.214 16.5253 235.627 16.76C235.04 16.9947 234.379 17.112 233.643 17.112C232.704 17.112 231.878 16.9253 231.163 16.552C230.448 16.1787 229.894 15.6613 229.499 15C229.115 14.328 228.923 13.5707 228.923 12.728C228.923 11.896 229.11 11.1493 229.483 10.488C229.867 9.816 230.395 9.29333 231.067 8.92C231.739 8.54667 232.496 8.36 233.339 8.36C234.171 8.36 234.912 8.54667 235.563 8.92C236.224 9.28267 236.736 9.8 237.099 10.472C237.472 11.1333 237.659 11.9013 237.659 12.776ZM233.339 9.96C232.699 9.96 232.155 10.152 231.707 10.536C231.27 10.9093 231.003 11.4107 230.907 12.04H235.755C235.67 11.4213 235.408 10.92 234.971 10.536C234.534 10.152 233.99 9.96 233.339 9.96Z" fill="black"/>
<path d="M272.824 7.56H269.112V5.8H278.616V7.56H274.904V17H272.824V7.56ZM286.502 12.776C286.502 12.9147 286.491 13.112 286.47 13.368H279.766C279.883 13.9973 280.187 14.4987 280.678 14.872C281.179 15.2347 281.798 15.416 282.534 15.416C283.472 15.416 284.246 15.1067 284.854 14.488L285.926 15.72C285.542 16.1787 285.056 16.5253 284.47 16.76C283.883 16.9947 283.222 17.112 282.486 17.112C281.547 17.112 280.72 16.9253 280.006 16.552C279.291 16.1787 278.736 15.6613 278.342 15C277.958 14.328 277.766 13.5707 277.766 12.728C277.766 11.896 277.952 11.1493 278.326 10.488C278.71 9.816 279.238 9.29333 279.91 8.92C280.582 8.54667 281.339 8.36 282.182 8.36C283.014 8.36 283.755 8.54667 284.406 8.92C285.067 9.28267 285.579 9.8 285.942 10.472C286.315 11.1333 286.502 11.9013 286.502 12.776ZM282.182 9.96C281.542 9.96 280.998 10.152 280.55 10.536C280.112 10.9093 279.846 11.4107 279.75 12.04H284.598C284.512 11.4213 284.251 10.92 283.814 10.536C283.376 10.152 282.832 9.96 282.182 9.96ZM292.988 17L290.796 14.04L288.588 17H286.38L289.708 12.664L286.524 8.456H288.748L290.844 11.256L292.94 8.456H295.1L291.9 12.632L295.244 17H292.988ZM301.216 16.536C300.982 16.728 300.694 16.872 300.352 16.968C300.022 17.064 299.67 17.112 299.296 17.112C298.358 17.112 297.632 16.8667 297.12 16.376C296.608 15.8853 296.352 15.1707 296.352 14.232V10.12H294.944V8.52H296.352V6.568H298.352V8.52H300.64V10.12H298.352V14.184C298.352 14.6 298.454 14.92 298.656 15.144C298.859 15.3573 299.152 15.464 299.536 15.464C299.984 15.464 300.358 15.3467 300.656 15.112L301.216 16.536ZM306.957 8.36C307.789 8.36 308.531 8.54133 309.181 8.904C309.843 9.26667 310.36 9.77867 310.733 10.44C311.107 11.1013 311.293 11.864 311.293 12.728C311.293 13.592 311.107 14.36 310.733 15.032C310.36 15.6933 309.843 16.2053 309.181 16.568C308.531 16.9307 307.789 17.112 306.957 17.112C306.371 17.112 305.832 17.0107 305.341 16.808C304.861 16.6053 304.456 16.3013 304.125 15.896V17H302.221V5.128H304.221V9.496C304.563 9.12267 304.963 8.84 305.421 8.648C305.891 8.456 306.403 8.36 306.957 8.36ZM306.733 15.4C307.469 15.4 308.072 15.1547 308.541 14.664C309.021 14.1733 309.261 13.528 309.261 12.728C309.261 11.928 309.021 11.2827 308.541 10.792C308.072 10.3013 307.469 10.056 306.733 10.056C306.253 10.056 305.821 10.168 305.437 10.392C305.053 10.6053 304.749 10.9147 304.525 11.32C304.301 11.7253 304.189 12.1947 304.189 12.728C304.189 13.2613 304.301 13.7307 304.525 14.136C304.749 14.5413 305.053 14.856 305.437 15.08C305.821 15.2933 306.253 15.4 306.733 15.4ZM316.39 17.112C315.526 17.112 314.748 16.9253 314.054 16.552C313.361 16.1787 312.817 15.6613 312.422 15C312.038 14.328 311.846 13.5707 311.846 12.728C311.846 11.8853 312.038 11.1333 312.422 10.472C312.817 9.81067 313.361 9.29333 314.054 8.92C314.748 8.54667 315.526 8.36 316.39 8.36C317.265 8.36 318.049 8.54667 318.742 8.92C319.436 9.29333 319.974 9.81067 320.358 10.472C320.753 11.1333 320.95 11.8853 320.95 12.728C320.95 13.5707 320.753 14.328 320.358 15C319.974 15.6613 319.436 16.1787 318.742 16.552C318.049 16.9253 317.265 17.112 316.39 17.112ZM316.39 15.4C317.126 15.4 317.734 15.1547 318.214 14.664C318.694 14.1733 318.934 13.528 318.934 12.728C318.934 11.928 318.694 11.2827 318.214 10.792C317.734 10.3013 317.126 10.056 316.39 10.056C315.654 10.056 315.046 10.3013 314.566 10.792C314.097 11.2827 313.862 11.928 313.862 12.728C313.862 13.528 314.097 14.1733 314.566 14.664C315.046 15.1547 315.654 15.4 316.39 15.4ZM326.063 17.112C325.199 17.112 324.42 16.9253 323.727 16.552C323.033 16.1787 322.489 15.6613 322.095 15C321.711 14.328 321.519 13.5707 321.519 12.728C321.519 11.8853 321.711 11.1333 322.095 10.472C322.489 9.81067 323.033 9.29333 323.727 8.92C324.42 8.54667 325.199 8.36 326.063 8.36C326.937 8.36 327.721 8.54667 328.415 8.92C329.108 9.29333 329.647 9.81067 330.031 10.472C330.425 11.1333 330.623 11.8853 330.623 12.728C330.623 13.5707 330.425 14.328 330.031 15C329.647 15.6613 329.108 16.1787 328.415 16.552C327.721 16.9253 326.937 17.112 326.063 17.112ZM326.063 15.4C326.799 15.4 327.407 15.1547 327.887 14.664C328.367 14.1733 328.607 13.528 328.607 12.728C328.607 11.928 328.367 11.2827 327.887 10.792C327.407 10.3013 326.799 10.056 326.063 10.056C325.327 10.056 324.719 10.3013 324.239 10.792C323.769 11.2827 323.535 11.928 323.535 12.728C323.535 13.528 323.769 14.1733 324.239 14.664C324.719 15.1547 325.327 15.4 326.063 15.4ZM335.383 13.336L333.895 14.744V17H331.895V5.128H333.895V12.296L338.039 8.456H340.439L336.871 12.04L340.775 17H338.343L335.383 13.336Z" fill="#757575"/>
<path d="M376.024 17.16C375.16 17.16 374.322 17.0373 373.512 16.792C372.712 16.5467 372.077 16.2213 371.608 15.816L372.328 14.2C372.786 14.5627 373.346 14.8613 374.008 15.096C374.68 15.32 375.352 15.432 376.024 15.432C376.856 15.432 377.474 15.2987 377.88 15.032C378.296 14.7653 378.504 14.4133 378.504 13.976C378.504 13.656 378.386 13.3947 378.152 13.192C377.928 12.9787 377.64 12.8133 377.288 12.696C376.936 12.5787 376.456 12.4453 375.848 12.296C374.994 12.0933 374.301 11.8907 373.768 11.688C373.245 11.4853 372.792 11.1707 372.408 10.744C372.034 10.3067 371.848 9.72 371.848 8.984C371.848 8.36533 372.013 7.80533 372.344 7.304C372.685 6.792 373.192 6.38667 373.864 6.088C374.546 5.78933 375.378 5.64 376.36 5.64C377.042 5.64 377.714 5.72533 378.376 5.896C379.037 6.06667 379.608 6.312 380.088 6.632L379.432 8.248C378.941 7.96 378.429 7.74133 377.896 7.592C377.362 7.44267 376.845 7.368 376.344 7.368C375.522 7.368 374.909 7.50667 374.504 7.784C374.109 8.06133 373.912 8.42933 373.912 8.888C373.912 9.208 374.024 9.46933 374.248 9.672C374.482 9.87467 374.776 10.0347 375.128 10.152C375.48 10.2693 375.96 10.4027 376.568 10.552C377.4 10.744 378.082 10.9467 378.616 11.16C379.149 11.3627 379.602 11.6773 379.976 12.104C380.36 12.5307 380.552 13.1067 380.552 13.832C380.552 14.4507 380.381 15.0107 380.04 15.512C379.709 16.0133 379.202 16.4133 378.52 16.712C377.837 17.0107 377.005 17.16 376.024 17.16ZM386.918 16.536C386.683 16.728 386.395 16.872 386.054 16.968C385.723 17.064 385.371 17.112 384.998 17.112C384.059 17.112 383.334 16.8667 382.822 16.376C382.31 15.8853 382.054 15.1707 382.054 14.232V10.12H380.646V8.52H382.054V6.568H384.054V8.52H386.342V10.12H384.054V14.184C384.054 14.6 384.155 14.92 384.358 15.144C384.561 15.3573 384.854 15.464 385.238 15.464C385.686 15.464 386.059 15.3467 386.358 15.112L386.918 16.536ZM391.187 8.36C392.446 8.36 393.406 8.664 394.067 9.272C394.739 9.86933 395.075 10.776 395.075 11.992V17H393.187V15.96C392.942 16.3333 392.59 16.6213 392.131 16.824C391.683 17.016 391.139 17.112 390.499 17.112C389.859 17.112 389.299 17.0053 388.819 16.792C388.339 16.568 387.966 16.264 387.699 15.88C387.443 15.4853 387.315 15.0427 387.315 14.552C387.315 13.784 387.598 13.1707 388.163 12.712C388.739 12.2427 389.641 12.008 390.867 12.008H393.075V11.88C393.075 11.2827 392.894 10.824 392.531 10.504C392.179 10.184 391.651 10.024 390.947 10.024C390.467 10.024 389.993 10.0987 389.523 10.248C389.065 10.3973 388.675 10.6053 388.355 10.872L387.571 9.416C388.019 9.07467 388.558 8.81333 389.187 8.632C389.817 8.45067 390.483 8.36 391.187 8.36ZM390.915 15.656C391.417 15.656 391.859 15.544 392.243 15.32C392.638 15.0853 392.915 14.7547 393.075 14.328V13.336H391.011C389.859 13.336 389.283 13.7147 389.283 14.472C389.283 14.8347 389.427 15.1227 389.715 15.336C390.003 15.5493 390.403 15.656 390.915 15.656ZM402.138 16.536C401.903 16.728 401.615 16.872 401.274 16.968C400.943 17.064 400.591 17.112 400.218 17.112C399.279 17.112 398.554 16.8667 398.042 16.376C397.53 15.8853 397.274 15.1707 397.274 14.232V10.12H395.866V8.52H397.274V6.568H399.274V8.52H401.562V10.12H399.274V14.184C399.274 14.6 399.375 14.92 399.578 15.144C399.781 15.3573 400.074 15.464 400.458 15.464C400.906 15.464 401.279 15.3467 401.578 15.112L402.138 16.536ZM403.143 8.456H405.143V17H403.143V8.456ZM404.151 7.048C403.789 7.048 403.485 6.936 403.239 6.712C402.994 6.47733 402.871 6.18933 402.871 5.848C402.871 5.50667 402.994 5.224 403.239 5C403.485 4.76533 403.789 4.648 404.151 4.648C404.514 4.648 404.818 4.76 405.063 4.984C405.309 5.19733 405.431 5.46933 405.431 5.8C405.431 6.152 405.309 6.45067 405.063 6.696C404.829 6.93067 404.525 7.048 404.151 7.048ZM409.768 17.112C409.075 17.112 408.398 17.0213 407.736 16.84C407.075 16.6587 406.547 16.4293 406.152 16.152L406.92 14.632C407.304 14.888 407.763 15.096 408.296 15.256C408.84 15.4053 409.374 15.48 409.896 15.48C411.091 15.48 411.688 15.1653 411.688 14.536C411.688 14.2373 411.534 14.0293 411.224 13.912C410.926 13.7947 410.44 13.6827 409.768 13.576C409.064 13.4693 408.488 13.3467 408.04 13.208C407.603 13.0693 407.219 12.8293 406.888 12.488C406.568 12.136 406.408 11.6507 406.408 11.032C406.408 10.2213 406.744 9.576 407.416 9.096C408.099 8.60533 409.016 8.36 410.168 8.36C410.755 8.36 411.342 8.42933 411.928 8.568C412.515 8.696 412.995 8.872 413.368 9.096L412.6 10.616C411.875 10.1893 411.059 9.976 410.152 9.976C409.566 9.976 409.118 10.0667 408.808 10.248C408.51 10.4187 408.36 10.648 408.36 10.936C408.36 11.256 408.52 11.4853 408.84 11.624C409.171 11.752 409.678 11.8747 410.36 11.992C411.043 12.0987 411.603 12.2213 412.04 12.36C412.478 12.4987 412.851 12.7333 413.16 13.064C413.48 13.3947 413.64 13.864 413.64 14.472C413.64 15.272 413.294 15.912 412.6 16.392C411.907 16.872 410.963 17.112 409.768 17.112ZM419.859 16.536C419.624 16.728 419.336 16.872 418.995 16.968C418.664 17.064 418.312 17.112 417.939 17.112C417 17.112 416.275 16.8667 415.763 16.376C415.251 15.8853 414.995 15.1707 414.995 14.232V10.12H413.587V8.52H414.995V6.568H416.995V8.52H419.283V10.12H416.995V14.184C416.995 14.6 417.096 14.92 417.299 15.144C417.501 15.3573 417.795 15.464 418.179 15.464C418.627 15.464 419 15.3467 419.299 15.112L419.859 16.536ZM420.864 8.456H422.864V17H420.864V8.456ZM421.872 7.048C421.509 7.048 421.205 6.936 420.96 6.712C420.715 6.47733 420.592 6.18933 420.592 5.848C420.592 5.50667 420.715 5.224 420.96 5C421.205 4.76533 421.509 4.648 421.872 4.648C422.235 4.648 422.539 4.76 422.784 4.984C423.029 5.19733 423.152 5.46933 423.152 5.8C423.152 6.152 423.029 6.45067 422.784 6.696C422.549 6.93067 422.245 7.048 421.872 7.048ZM428.769 17.112C427.884 17.112 427.089 16.9253 426.385 16.552C425.681 16.1787 425.132 15.6613 424.737 15C424.342 14.328 424.145 13.5707 424.145 12.728C424.145 11.8853 424.342 11.1333 424.737 10.472C425.132 9.81067 425.676 9.29333 426.369 8.92C427.073 8.54667 427.873 8.36 428.769 8.36C429.612 8.36 430.348 8.53067 430.977 8.872C431.617 9.21333 432.097 9.704 432.417 10.344L430.881 11.24C430.636 10.8453 430.326 10.552 429.953 10.36C429.59 10.1573 429.19 10.056 428.753 10.056C428.006 10.056 427.388 10.3013 426.897 10.792C426.406 11.272 426.161 11.9173 426.161 12.728C426.161 13.5387 426.401 14.1893 426.881 14.68C427.372 15.16 427.996 15.4 428.753 15.4C429.19 15.4 429.59 15.304 429.953 15.112C430.326 14.9093 430.636 14.6107 430.881 14.216L432.417 15.112C432.086 15.752 431.601 16.248 430.961 16.6C430.332 16.9413 429.601 17.112 428.769 17.112ZM436.146 17.112C435.453 17.112 434.775 17.0213 434.114 16.84C433.453 16.6587 432.925 16.4293 432.53 16.152L433.298 14.632C433.682 14.888 434.141 15.096 434.674 15.256C435.218 15.4053 435.751 15.48 436.274 15.48C437.469 15.48 438.066 15.1653 438.066 14.536C438.066 14.2373 437.911 14.0293 437.602 13.912C437.303 13.7947 436.818 13.6827 436.146 13.576C435.442 13.4693 434.866 13.3467 434.418 13.208C433.981 13.0693 433.597 12.8293 433.266 12.488C432.946 12.136 432.786 11.6507 432.786 11.032C432.786 10.2213 433.122 9.576 433.794 9.096C434.477 8.60533 435.394 8.36 436.546 8.36C437.133 8.36 437.719 8.42933 438.306 8.568C438.893 8.696 439.373 8.872 439.746 9.096L438.978 10.616C438.253 10.1893 437.437 9.976 436.53 9.976C435.943 9.976 435.495 10.0667 435.186 10.248C434.887 10.4187 434.738 10.648 434.738 10.936C434.738 11.256 434.898 11.4853 435.218 11.624C435.549 11.752 436.055 11.8747 436.738 11.992C437.421 12.0987 437.981 12.2213 438.418 12.36C438.855 12.4987 439.229 12.7333 439.538 13.064C439.858 13.3947 440.018 13.864 440.018 14.472C440.018 15.272 439.671 15.912 438.978 16.392C438.285 16.872 437.341 17.112 436.146 17.112Z" fill="#757575"/>
<path d="M480.2 11.272H482.168V15.736C481.592 16.1947 480.92 16.5467 480.152 16.792C479.384 17.0373 478.594 17.16 477.784 17.16C476.642 17.16 475.613 16.9147 474.696 16.424C473.778 15.9227 473.058 15.2347 472.536 14.36C472.013 13.4853 471.752 12.4987 471.752 11.4C471.752 10.3013 472.013 9.31467 472.536 8.44C473.058 7.56533 473.778 6.88267 474.696 6.392C475.624 5.89067 476.664 5.64 477.816 5.64C478.754 5.64 479.608 5.79467 480.376 6.104C481.144 6.41333 481.789 6.86667 482.312 7.464L481 8.744C480.146 7.89067 479.117 7.464 477.912 7.464C477.122 7.464 476.418 7.62933 475.8 7.96C475.192 8.29067 474.712 8.75467 474.36 9.352C474.018 9.94933 473.848 10.632 473.848 11.4C473.848 12.1467 474.018 12.8187 474.36 13.416C474.712 14.0133 475.192 14.4827 475.8 14.824C476.418 15.1653 477.117 15.336 477.896 15.336C478.77 15.336 479.538 15.144 480.2 14.76V11.272ZM487.343 8.36C488.602 8.36 489.562 8.664 490.223 9.272C490.895 9.86933 491.231 10.776 491.231 11.992V17H489.343V15.96C489.098 16.3333 488.746 16.6213 488.287 16.824C487.839 17.016 487.295 17.112 486.655 17.112C486.015 17.112 485.455 17.0053 484.975 16.792C484.495 16.568 484.122 16.264 483.855 15.88C483.599 15.4853 483.471 15.0427 483.471 14.552C483.471 13.784 483.754 13.1707 484.319 12.712C484.895 12.2427 485.796 12.008 487.023 12.008H489.231V11.88C489.231 11.2827 489.05 10.824 488.687 10.504C488.335 10.184 487.807 10.024 487.103 10.024C486.623 10.024 486.148 10.0987 485.679 10.248C485.22 10.3973 484.831 10.6053 484.511 10.872L483.727 9.416C484.175 9.07467 484.714 8.81333 485.343 8.632C485.972 8.45067 486.639 8.36 487.343 8.36ZM487.071 15.656C487.572 15.656 488.015 15.544 488.399 15.32C488.794 15.0853 489.071 14.7547 489.231 14.328V13.336H487.167C486.015 13.336 485.439 13.7147 485.439 14.472C485.439 14.8347 485.583 15.1227 485.871 15.336C486.159 15.5493 486.559 15.656 487.071 15.656ZM503.942 8.36C505.019 8.36 505.872 8.67467 506.502 9.304C507.131 9.92267 507.446 10.856 507.446 12.104V17H505.446V12.36C505.446 11.6133 505.28 11.0533 504.95 10.68C504.619 10.296 504.144 10.104 503.526 10.104C502.854 10.104 502.315 10.328 501.91 10.776C501.504 11.2133 501.302 11.8427 501.302 12.664V17H499.302V12.36C499.302 11.6133 499.136 11.0533 498.806 10.68C498.475 10.296 498 10.104 497.382 10.104C496.699 10.104 496.155 10.3227 495.75 10.76C495.355 11.1973 495.158 11.832 495.158 12.664V17H493.158V8.456H495.062V9.544C495.382 9.16 495.782 8.86667 496.262 8.664C496.742 8.46133 497.275 8.36 497.862 8.36C498.502 8.36 499.067 8.48267 499.558 8.728C500.059 8.96267 500.454 9.31467 500.742 9.784C501.094 9.336 501.547 8.98933 502.102 8.744C502.656 8.488 503.27 8.36 503.942 8.36ZM517.472 12.776C517.472 12.9147 517.461 13.112 517.44 13.368H510.736C510.853 13.9973 511.157 14.4987 511.648 14.872C512.149 15.2347 512.768 15.416 513.504 15.416C514.442 15.416 515.216 15.1067 515.824 14.488L516.896 15.72C516.512 16.1787 516.026 16.5253 515.44 16.76C514.853 16.9947 514.192 17.112 513.456 17.112C512.517 17.112 511.69 16.9253 510.976 16.552C510.261 16.1787 509.706 15.6613 509.312 15C508.928 14.328 508.736 13.5707 508.736 12.728C508.736 11.896 508.922 11.1493 509.296 10.488C509.68 9.816 510.208 9.29333 510.88 8.92C511.552 8.54667 512.309 8.36 513.152 8.36C513.984 8.36 514.725 8.54667 515.376 8.92C516.037 9.28267 516.549 9.8 516.912 10.472C517.285 11.1333 517.472 11.9013 517.472 12.776ZM513.152 9.96C512.512 9.96 511.968 10.152 511.52 10.536C511.082 10.9093 510.816 11.4107 510.72 12.04H515.568C515.482 11.4213 515.221 10.92 514.784 10.536C514.346 10.152 513.802 9.96 513.152 9.96ZM521.393 17.112C520.699 17.112 520.022 17.0213 519.361 16.84C518.699 16.6587 518.171 16.4293 517.777 16.152L518.545 14.632C518.929 14.888 519.387 15.096 519.921 15.256C520.465 15.4053 520.998 15.48 521.521 15.48C522.715 15.48 523.313 15.1653 523.313 14.536C523.313 14.2373 523.158 14.0293 522.849 13.912C522.55 13.7947 522.065 13.6827 521.393 13.576C520.689 13.4693 520.113 13.3467 519.665 13.208C519.227 13.0693 518.843 12.8293 518.513 12.488C518.193 12.136 518.033 11.6507 518.033 11.032C518.033 10.2213 518.369 9.576 519.041 9.096C519.723 8.60533 520.641 8.36 521.793 8.36C522.379 8.36 522.966 8.42933 523.553 8.568C524.139 8.696 524.619 8.872 524.993 9.096L524.225 10.616C523.499 10.1893 522.683 9.976 521.777 9.976C521.19 9.976 520.742 10.0667 520.433 10.248C520.134 10.4187 519.985 10.648 519.985 10.936C519.985 11.256 520.145 11.4853 520.465 11.624C520.795 11.752 521.302 11.8747 521.985 11.992C522.667 12.0987 523.227 12.2213 523.665 12.36C524.102 12.4987 524.475 12.7333 524.785 13.064C525.105 13.3947 525.265 13.864 525.265 14.472C525.265 15.272 524.918 15.912 524.225 16.392C523.531 16.872 522.587 17.112 521.393 17.112Z" fill="#757575"/>
<path d="M529.812 10.6089L533.274 14.0713L536.737 10.6089" stroke="#757575" stroke-width="1.6"/>
</svg>
